<svg width="46" height="41" viewBox="0 0 46 41" fill="none" xmlns="http://www.w3.org/2000/svg">
<g clip-path="url(#clip0_23_380)">
<path d="M29.7084 18.7917C31.2962 18.7917 32.5834 17.6444 32.5834 16.2292C32.5834 14.8139 31.2962 13.6667 29.7084 13.6667C28.1206 13.6667 26.8334 14.8139 26.8334 16.2292C26.8334 17.6444 28.1206 18.7917 29.7084 18.7917Z" fill="#555454"/>
<path d="M16.2916 18.7917C17.8794 18.7917 19.1666 17.6444 19.1666 16.2292C19.1666 14.8139 17.8794 13.6667 16.2916 13.6667C14.7038 13.6667 13.4166 14.8139 13.4166 16.2292C13.4166 17.6444 14.7038 18.7917 16.2916 18.7917Z" fill="#555454"/>
<path d="M23 27.3333C20.1633 27.3333 17.7291 25.9496 16.3875 23.9167H13.1866C14.72 27.4187 18.5341 29.8958 23 29.8958C27.4658 29.8958 31.28 27.4187 32.8133 23.9167H29.6125C28.2708 25.9496 25.8366 27.3333 23 27.3333ZM22.9808 3.41666C12.4008 3.41666 3.83331 11.07 3.83331 20.5C3.83331 29.93 12.4008 37.5833 22.9808 37.5833C33.58 37.5833 42.1666 29.93 42.1666 20.5C42.1666 11.07 33.58 3.41666 22.9808 3.41666ZM23 34.1667C14.5283 34.1667 7.66665 28.0508 7.66665 20.5C7.66665 12.9492 14.5283 6.83332 23 6.83332C31.4716 6.83332 38.3333 12.9492 38.3333 20.5C38.3333 28.0508 31.4716 34.1667 23 34.1667Z" fill="#555454"/>
</g>
<defs>
<clipPath id="clip0_23_380">
<rect width="46" height="41" fill="white"/>
</clipPath>
</defs>
</svg>
