<svg width="39" height="34" viewBox="0 0 39 34" fill="none" xmlns="http://www.w3.org/2000/svg">
<path d="M19.5 0C8.736 0 0 7.616 0 17C0 26.384 8.736 34 19.5 34C30.264 34 39 26.384 39 17C39 7.616 30.264 0 19.5 0ZM10.4325 28.05C12.987 26.452 16.107 25.5 19.5 25.5C22.893 25.5 26.013 26.452 28.5675 28.05C26.013 29.648 22.893 30.6 19.5 30.6C16.107 30.6 12.987 29.648 10.4325 28.05ZM31.473 25.704C28.1775 23.46 24.024 22.1 19.5 22.1C14.976 22.1 10.8225 23.46 7.527 25.704C5.265 23.341 3.9 20.315 3.9 17C3.9 9.486 10.881 3.4 19.5 3.4C28.119 3.4 35.1 9.486 35.1 17C35.1 20.315 33.735 23.341 31.473 25.704Z" fill="#555454"/>
<path d="M19.5 6.80002C15.7365 6.80002 12.675 9.46902 12.675 12.75C12.675 16.031 15.7365 18.7 19.5 18.7C23.2635 18.7 26.325 16.031 26.325 12.75C26.325 9.46902 23.2635 6.80002 19.5 6.80002ZM19.5 15.3C17.8815 15.3 16.575 14.161 16.575 12.75C16.575 11.339 17.8815 10.2 19.5 10.2C21.1185 10.2 22.425 11.339 22.425 12.75C22.425 14.161 21.1185 15.3 19.5 15.3Z" fill="#555454"/>
</svg>
