<svg width="194" height="180" viewBox="0 0 194 208" fill="none" xmlns="http://www.w3.org/2000/svg">
<path d="M33.7479 190.667V142.35H54.7646V190.667H33.7479ZM76.5896 190.667V79.0833C69.3146 82.55 63.8583 87.3889 60.2208 93.6C56.5833 99.8111 54.7646 107.9 54.7646 117.867H42.6396C42.6396 100.244 47.557 86.5944 57.3917 76.9166C67.2264 67.2389 80.5639 62.4 97.4042 62.4C112.089 62.4 123.338 59.475 131.152 53.625C138.966 47.775 142.873 37.4111 142.873 22.5333H154.998C154.998 36.2555 152.068 47.3416 146.207 55.7916C140.347 64.2416 131.354 69.9833 119.229 73.0166V190.667H107.104V135.417H88.7146V190.667H76.5896ZM97.4203 48.9666C93.3679 48.9666 89.8934 47.4196 86.9969 44.3256C84.1004 41.2315 82.6521 37.5121 82.6521 33.1673C82.6521 28.8224 84.095 25.0972 86.9807 21.9916C89.8666 18.8861 93.3357 17.3333 97.388 17.3333C101.44 17.3333 104.915 18.8803 107.811 21.9743C110.708 25.0685 112.156 28.7879 112.156 33.1326C112.156 37.4775 110.713 41.2028 107.828 44.3083C104.942 47.4139 101.473 48.9666 97.4203 48.9666Z" fill="#E9E9E9"/>
</svg>
