<svg width="200" height="200" viewBox="0 0 310 302" fill="none" xmlns="http://www.w3.org/2000/svg">
<g clip-path="url(#clip0_15_61)">
<path d="M223.685 207.366C222.386 209.465 220.712 211.162 218.663 212.456C216.614 213.75 214.406 214.603 212.038 215.017L145.517 226.625L139.854 208.777C138.98 205.845 138.69 202.976 138.986 200.171C139.282 197.365 140.502 195.004 142.649 193.087L155.338 180.959L87.4316 138.942C81.5991 135.333 77.7773 130.492 75.966 124.419C74.1547 118.346 74.8537 112.716 78.0629 107.53C81.2721 102.343 85.9982 99.205 92.2413 98.1155C98.4844 97.026 104.522 98.2856 110.355 101.894L146.182 124.063L149.162 119.246C149.545 118.629 150.027 118.159 150.611 117.837C151.194 117.515 151.816 117.131 152.475 116.685L184.436 98.5499C187.797 96.5312 191.619 95.8644 195.9 96.5494C200.181 97.2343 203.935 99.0025 207.164 101.854L248.448 136.62C252.093 139.729 254.321 143.498 255.133 147.928C255.944 152.358 255.242 156.364 253.026 159.945L223.685 207.366ZM210.27 201.115L242.477 149.063L195.538 109.005L155.608 131.175L149.304 141.363L103.478 113.009C100.978 111.462 98.5442 110.895 96.1762 111.309C93.8081 111.722 91.9364 113.04 90.561 115.263C89.1856 117.486 88.8415 119.749 89.5285 122.052C90.2155 124.356 91.8089 126.281 94.3085 127.828L177.421 179.253L152.896 203.526L155.051 210.751L210.27 201.115Z" fill="#E8E8E8"/>
</g>
<defs>
<clipPath id="clip0_15_61">
<rect width="209.117" height="235.153" fill="white" transform="translate(0 177.829) rotate(-58.2532)"/>
</clipPath>
</defs>
</svg>
