<svg width="200" height="200" viewBox="0 0 297 283" fill="none" xmlns="http://www.w3.org/2000/svg">
<path d="M70.6807 96.2618C71.6116 93.9753 72.9794 92.0234 74.7839 90.4062C76.5884 88.789 78.6236 87.5793 80.8897 86.7771L144.546 64.2445L153.104 80.8998C154.455 83.6449 155.218 86.4252 155.394 89.2408C155.57 92.0564 154.76 94.588 152.963 96.8356L142.473 110.909L216.432 141.021C222.784 143.608 227.359 147.744 230.157 153.43C232.955 159.116 233.205 164.784 230.905 170.433C228.605 176.082 224.468 179.964 218.493 182.078C212.519 184.193 206.356 183.957 200.004 181.371L160.982 165.484L158.847 170.729C158.573 171.402 158.175 171.946 157.654 172.36C157.132 172.775 156.583 173.257 156.007 173.807L127.516 197.015C124.538 199.566 120.881 200.86 116.546 200.898C112.211 200.936 108.214 199.818 104.555 197.545L58.0548 170.146C53.9425 167.688 51.1171 164.342 49.5785 160.109C48.0399 155.877 48.0647 151.81 49.6527 147.91L70.6807 96.2618ZM84.95 100.19L61.8685 156.881L114.827 188.556L150.503 160.041L155.021 148.945L204.932 169.266C207.655 170.375 210.149 170.528 212.415 169.726C214.681 168.923 216.307 167.312 217.293 164.891C218.278 162.47 218.24 160.181 217.179 158.024C216.118 155.867 214.226 154.235 211.503 153.126L120.983 116.272L141.119 88.2503L137.79 81.4856L84.95 100.19Z" fill="#E8E8E8"/>
</svg>
