<svg width="81" height="81" viewBox="0 0 81 81" fill="none" xmlns="http://www.w3.org/2000/svg">
<path d="M40.0045 27.8399L36.5051 31.3404L42.6727 37.5061L27.5061 37.5086L27.5069 42.5086L42.6736 42.5061L36.5079 48.6738L40.0085 52.1732L52.1731 40.0046L40.0045 27.8399ZM40.0011 6.67321C44.5566 6.67247 48.8623 7.54677 52.9182 9.29612C56.974 11.0455 60.5161 13.4338 63.5443 16.4611C66.5726 19.4884 68.9621 23.0296 70.7127 27.0849C72.4634 31.1402 73.3391 35.4456 73.3398 40.0011C73.3406 44.6123 72.4663 48.9457 70.7169 53.0016C68.9676 57.0574 66.5793 60.5856 63.552 63.5861C60.5247 66.5865 56.9834 68.9621 52.9281 70.7128C48.8729 72.4634 44.5674 73.3391 40.0119 73.3399C35.4008 73.3406 31.0673 72.4663 27.0115 70.717C22.9556 68.9676 19.4275 66.5932 16.427 63.5937C13.4265 60.5942 11.0509 57.0668 9.30026 53.0115C7.5496 48.9562 6.6739 44.623 6.67315 40.0119C6.67241 35.4564 7.54672 31.1507 9.29606 27.0948C11.0454 23.039 13.4198 19.497 16.4193 16.4687C19.4188 13.4404 22.9462 11.051 27.0015 9.30031C31.0568 7.54966 35.39 6.67395 40.0011 6.67321ZM40.0019 11.6732C32.113 11.6745 25.419 14.4395 19.9199 19.9681C14.4208 25.4968 11.6719 32.1778 11.6732 40.0111C11.6744 47.9 14.4255 54.594 19.9264 60.0931C25.4273 65.5922 32.1222 68.3411 40.0111 68.3399C47.8444 68.3386 54.5245 65.5875 60.0514 60.0866C65.5783 54.5857 68.3411 47.8908 68.3398 40.002C68.3385 32.1686 65.5736 25.4885 60.0449 19.9616C54.5162 14.4347 47.8352 11.6719 40.0019 11.6732Z" fill="black" fill-opacity="0.55"/>
</svg>
