<svg width="41" height="31" viewBox="0 0 41 31" fill="none" xmlns="http://www.w3.org/2000/svg">
<path d="M34.8592 3.9416C31.0246 1.39863 25.9179 0 20.4908 0C9.28906 0 0.173884 6.03047 0.173884 13.4414C0.173884 15.8088 1.10737 18.1217 2.88281 20.1621L0 27.125L10.7717 25.2541C13.7368 26.3258 17.0772 26.8889 20.4817 26.8889H20.4908C31.6835 26.8889 41 20.8584 41 13.4475C41 9.85703 38.6938 6.48457 34.8592 3.9416ZM20.4908 24.6244C17.4525 24.6244 14.4781 24.0855 11.8882 23.0684L11.275 22.8262L4.88705 23.9342L6.58929 19.8109L6.18661 19.3871C4.49353 17.607 3.6058 15.5545 3.6058 13.4414C3.6058 7.28379 11.1835 2.27051 20.5 2.27051C25.0118 2.27051 29.2491 3.43301 32.4339 5.54609C35.6187 7.65918 37.5772 10.4625 37.5681 13.4475C37.5681 19.6111 29.7982 24.6244 20.4908 24.6244ZM29.7525 16.2568C29.2491 16.0873 26.7507 15.276 26.2839 15.167C25.8172 15.052 25.4786 14.9975 25.14 15.3365C24.8013 15.6756 23.8313 16.4264 23.5292 16.6564C23.2364 16.8805 22.9344 16.9107 22.431 16.7412C19.4475 15.7543 17.4891 14.9793 15.5214 12.7451C14.9998 12.1518 16.0431 12.1941 17.0132 10.9105C17.1779 10.6865 17.0955 10.4928 16.9674 10.3232C16.8393 10.1537 15.8234 8.50078 15.4025 7.82871C14.9906 7.1748 14.5696 7.26563 14.2585 7.25352C13.9656 7.24141 13.627 7.24141 13.2884 7.24141C12.9498 7.24141 12.4007 7.32617 11.9339 7.65918C11.4672 7.99824 10.1585 8.80957 10.1585 10.4625C10.1585 12.1154 11.9797 13.7139 12.2268 13.9379C12.483 14.1619 15.8051 17.5525 20.9027 19.0117C24.1241 19.932 25.3871 20.0107 26.9978 19.8533C27.977 19.7564 29.9996 19.042 30.4205 18.2549C30.8415 17.4678 30.8415 16.7957 30.7134 16.6564C30.5944 16.5051 30.2558 16.4203 29.7525 16.2568Z" fill="#E8E8E8"/>
</svg>
