<svg width="311" height="200" viewBox="0 0 319 291" fill="none" xmlns="http://www.w3.org/2000/svg">
<mask id="mask0_1_101" style="mask-type:luminance" maskUnits="userSpaceOnUse" x="0" y="45" width="319" height="246">
<path d="M0 45.3835V290.906H318.977V45.3835H0ZM112.428 45.4796H112.438C112.463 45.479 112.478 45.4825 112.478 45.5041C112.558 45.5048 112.637 45.5045 112.717 45.5041C113.116 45.5042 113.516 45.5041 113.916 45.5041C114.127 45.5026 114.127 45.5062 114.191 45.5757C114.289 45.5596 114.38 45.5592 114.482 45.5605C114.694 45.565 114.907 45.5632 115.119 45.5625C115.21 45.5627 115.301 45.5625 115.392 45.5625C115.595 45.5624 115.798 45.5624 116 45.5625H116.343H116.756H116.943H117.152H117.511H117.557V45.6944C117.572 45.6919 117.587 45.6891 117.602 45.6886C117.665 45.6861 117.729 45.6888 117.792 45.6886C117.993 45.5782 118.174 45.5432 118.366 45.5435C118.482 45.5437 118.601 45.5531 118.733 45.57C118.875 45.5798 118.944 45.5672 119.058 45.5625C119.241 45.5647 119.426 45.5649 119.61 45.5644C119.729 45.5641 119.851 45.5644 119.97 45.5644C120.065 45.5644 120.162 45.5643 120.258 45.5644H121.151H121.465H121.707H121.942H122.559H123.272H123.504H123.801H124.139H124.25C124.426 45.5644 124.608 45.5619 124.788 45.5702C124.793 45.5687 124.803 45.5666 124.808 45.5644C124.886 45.5492 124.968 45.5817 125.046 45.5644C125.056 45.5644 125.117 45.5641 125.144 45.5644C125.144 45.5528 125.169 45.5643 125.179 45.5644C125.199 45.5642 125.219 45.5642 125.238 45.5644C125.268 45.5644 125.295 45.5644 125.324 45.5644C125.604 45.564 125.883 45.5633 126.163 45.5625C126.222 45.5625 126.265 45.5623 126.31 45.5625C126.305 45.5771 126.3 45.5967 126.3 45.6209C126.366 45.6209 126.431 45.6209 126.497 45.6209C126.513 45.6209 126.523 45.6209 126.538 45.6209C126.553 45.6075 126.568 45.5937 126.583 45.5831C126.563 45.5777 126.543 45.5702 126.525 45.5622C126.55 45.563 126.575 45.5658 126.601 45.5679C126.604 45.5681 126.611 45.5682 126.611 45.5679C126.662 45.5435 126.713 45.5341 126.773 45.5452C126.835 45.5563 126.884 45.5826 126.924 45.6206C126.939 45.6206 126.949 45.6206 126.964 45.6206C126.949 45.6162 126.934 45.6117 126.919 45.6055C126.893 45.5921 126.939 45.6066 126.983 45.6206H127.004H127.205H127.459H127.974C127.973 45.6207 127.975 45.6206 127.974 45.6206C129.006 45.5837 130.045 45.4908 131.072 45.6451C131.207 45.6651 131.332 45.7232 131.463 45.7619L131.437 45.8505C131.636 45.8412 131.836 45.8567 132.035 45.8543C132.142 45.8516 132.248 45.8523 132.355 45.8523C132.431 45.8522 132.508 45.8523 132.584 45.8523C132.689 45.8524 132.796 45.8523 132.902 45.8523H133.183H133.429H133.863H134.335H134.525H135.238H136.505H136.683V46.8982C136.737 46.8974 136.786 46.8963 136.873 46.8963H137.718C137.887 46.9105 138.057 46.8847 138.226 46.8963C138.694 46.9283 138.939 46.9647 139.386 47.0169C139.905 47.0774 140.168 47.105 140.656 47.1602C141.193 47.221 141.732 47.2536 142.265 47.3448C142.425 47.372 142.526 47.4152 142.681 47.3844C142.981 47.3808 143.181 47.4151 143.462 47.5239C143.497 47.5381 143.535 47.5559 143.57 47.5747C143.733 47.5805 143.896 47.5965 144.06 47.5992C144.112 47.6001 144.166 47.5939 144.218 47.5992C144.564 47.6357 144.646 47.6585 144.954 47.7217C145.244 47.7685 145.52 47.8704 145.806 47.929C145.816 47.9311 145.836 47.9292 145.851 47.929C145.851 47.9292 145.852 47.9288 145.851 47.929C145.913 47.9143 145.998 47.8943 146.011 47.8912C146.057 47.8882 146.099 47.8854 146.142 47.8819C146.596 47.812 147.152 47.729 147.636 47.6557C147.667 47.6499 147.69 47.6446 147.72 47.6388C147.866 47.6112 148.014 47.5943 148.162 47.5766C148.264 47.561 148.352 47.5477 148.46 47.5314C148.463 47.5307 148.465 47.5302 148.47 47.5295C148.717 47.4632 148.981 47.3159 149.193 47.407C149.411 47.3304 149.683 47.1698 149.738 47.3429C149.799 47.5324 149.791 47.7445 149.748 47.9497C149.758 47.9635 149.763 47.9773 149.773 47.9911C149.809 47.9918 149.843 47.9955 149.877 48.0004C150.106 48.0418 150.083 48.0387 150.256 48.1059C150.251 48.0953 150.226 48.0802 150.236 48.0739C150.261 48.061 150.288 48.0677 150.314 48.072C151.018 48.1915 150.385 48.0813 150.867 48.2359C150.932 48.2568 151.001 48.2635 151.068 48.2773C151.149 48.2942 151.229 48.3107 151.31 48.3282C151.325 48.3301 151.34 48.3306 151.361 48.3339C151.585 48.245 151.807 48.1634 151.886 48.3302C151.921 48.4089 151.951 48.482 151.974 48.5525C151.989 48.5708 152.009 48.5894 152.025 48.6071C152.129 48.6027 152.232 48.5965 152.336 48.592C152.689 48.5769 153.18 48.2843 153.396 48.5524C153.427 48.588 153.442 48.6187 153.469 48.6523C153.489 48.6621 153.514 48.6724 153.535 48.6844C153.597 48.6759 153.654 48.6679 153.717 48.6599C154.493 48.5594 155.319 48.183 156.056 48.4394C156.179 48.4821 156.309 48.5592 156.433 48.658C156.443 48.658 156.459 48.6561 156.469 48.6561C156.569 48.6574 156.595 48.7064 156.57 48.7805C156.786 48.9913 156.952 49.2557 156.957 49.4852C156.967 49.4937 156.977 49.5013 156.987 49.5097C157.159 49.6579 157.079 49.8776 156.899 50.0901C157.079 50.3029 157.159 50.5242 156.987 50.6724C156.46 51.1265 155.718 51.0352 154.887 50.7214C154.633 50.6903 154.379 50.659 154.132 50.6706C154.13 50.6712 154.132 50.6699 154.132 50.6706C154.061 50.6848 153.986 50.7032 153.915 50.7177C153.93 50.767 153.94 50.8173 153.95 50.8666C154.114 50.9655 154.26 51.0777 154.335 51.2435C154.406 51.4023 154.325 51.5845 154.208 51.7447C154.767 51.6624 155.326 51.5813 155.884 51.496C157.554 51.2404 159.209 50.6732 160.896 50.7271C161.295 50.5592 161.689 50.404 161.929 50.6687C162.055 50.8081 162.036 50.9975 161.933 51.1851C162.122 51.38 162.223 51.6102 162.132 51.8164C161.906 52.3313 160.99 52.0055 160.419 52.1009C160.354 52.1094 160.309 52.1151 160.243 52.1236C160.014 52.1739 159.781 52.2137 159.548 52.2498C159.641 52.3603 159.734 52.4837 159.818 52.6211C159.905 52.7609 159.509 52.7595 159.342 52.7869C159.09 52.8278 158.838 52.8646 158.586 52.9C158.631 52.9705 158.672 53.0431 158.71 53.1167C158.726 53.1157 158.726 53.1174 158.741 53.1167C158.956 53.0373 159.158 53.0047 159.319 53.1394C159.418 53.2217 159.453 53.3496 159.44 53.4899C159.61 53.7247 159.698 54.0154 159.6 54.2342C159.646 54.3075 159.69 54.3836 159.733 54.4679C159.833 54.6615 159.523 54.8127 159.264 54.9126C159.524 54.9107 159.845 54.9124 159.879 54.9126C160.713 54.8899 160.908 55.1148 161.965 55.5156C162.06 55.6404 163.282 56.6833 162.899 56.4371C161.609 55.607 163.102 56.0181 160.676 55.8379C160.522 55.8263 160.401 55.8254 160.278 55.8245C160.323 55.8485 160.372 55.8738 160.416 55.9036C160.436 55.9179 160.467 55.9406 160.498 55.9659C160.662 56.0059 160.713 56.0647 160.801 56.1713C161.027 56.251 161.166 56.4812 161.373 56.6009C161.44 56.6397 161.304 56.448 161.23 56.3805C161.241 56.3833 161.251 56.3871 161.266 56.3916C161.378 56.4383 161.479 56.5023 161.586 56.5593C161.585 56.5574 161.582 56.5517 161.584 56.5517C161.594 56.5536 161.609 56.5691 161.619 56.5744C161.609 56.5686 161.596 56.5646 161.586 56.5593C161.588 56.5632 161.594 56.5691 161.594 56.5726C161.645 56.5962 161.692 56.6205 161.741 56.6442C161.841 56.7059 161.944 56.7492 162.026 56.8289C162.031 56.8347 162.036 56.8432 162.041 56.8476C162.086 56.8832 162.171 56.8933 162.185 56.9494C162.186 56.9513 162.186 56.9543 162.187 56.957C162.466 57.0985 162.364 57.0711 162.51 57.1812C162.53 57.1955 162.604 57.2261 162.576 57.2226C162.53 57.2177 162.498 57.1762 162.454 57.1717C162.439 57.1708 162.429 57.1709 162.414 57.1717C162.454 57.23 162.484 57.2969 162.512 57.364C162.517 57.3647 162.522 57.3649 162.527 57.3659C162.547 57.3895 162.562 57.4046 162.579 57.4262C162.574 57.4258 162.569 57.4252 162.564 57.4242C162.554 57.4252 162.549 57.4272 162.539 57.4281C162.549 57.4548 162.559 57.482 162.569 57.5092C162.605 57.5149 162.639 57.5207 162.682 57.5278C162.652 57.4958 162.621 57.4643 162.585 57.4261C162.6 57.4268 162.615 57.428 162.625 57.4299C162.651 57.4633 162.676 57.4978 162.704 57.5317C162.698 57.5307 162.687 57.5288 162.682 57.5278C162.847 57.7006 162.933 57.7916 162.957 57.8162C162.921 57.7775 162.816 57.6577 162.715 57.5335C162.781 57.5455 162.852 57.5584 162.924 57.5749C162.863 57.4965 162.799 57.4207 162.744 57.3375C162.734 57.3197 162.779 57.3615 162.796 57.3731C162.849 57.4087 162.902 57.4454 162.955 57.4805C163.14 57.6027 163.323 57.7279 163.525 57.8253C163.578 57.8766 163.631 57.93 163.683 57.9817C163.703 57.9924 163.726 58.0042 163.736 58.0122C163.966 58.1639 163.975 58.1697 164.047 58.2835C164.287 58.2835 164.527 58.2835 164.768 58.2835C165.02 58.2835 165.273 58.2835 165.525 58.2835C165.884 58.2836 166.241 58.2827 166.6 58.2816C166.93 58.2812 167.263 58.2822 167.594 58.2873C167.593 58.2873 167.595 58.2874 167.594 58.2873C167.634 58.2735 167.713 58.2686 167.778 58.2686C167.798 58.2686 167.818 58.2681 167.836 58.2686C168.137 58.2793 168.464 58.2989 168.76 58.3139L168.709 59.2354C168.83 59.202 168.939 59.1845 169.061 59.2092C169.066 59.2091 169.066 59.2111 169.071 59.2111C169.075 59.2116 169.077 59.2095 169.071 59.2111C169.112 59.22 169.153 59.2304 169.196 59.245C169.207 59.2499 169.237 59.262 169.249 59.266C169.189 59.2499 169.129 59.2348 169.069 59.2189C169.066 59.2189 169.064 59.2188 169.059 59.2189C168.965 59.2523 168.87 59.2828 168.776 59.315C168.755 59.3324 168.735 59.3501 168.715 59.3678L169.649 60.1027C169.613 60.1392 169.575 60.1755 169.539 60.212C169.198 60.3575 169.174 60.3996 168.989 60.3722C168.897 60.4127 168.806 60.4528 168.713 60.4909C168.688 60.5011 168.661 60.4909 168.633 60.4909H168.324H167.922H167.565H166.982H166.043H165.67H165.295H164.866H164.569C164.39 60.4909 164.211 60.4909 164.032 60.4909C163.746 60.4909 163.462 60.4909 163.176 60.4909C162.598 60.4909 162.018 60.4908 161.44 60.4909C161.212 60.4909 160.985 60.4905 160.756 60.4909C160.658 60.4916 160.529 60.4948 160.456 60.487C160.451 60.4867 160.446 60.4832 160.446 60.4832C160.445 60.4834 160.447 60.483 160.446 60.4832C160.383 60.4934 160.314 60.5219 160.252 60.5076C160.142 60.4823 160.061 60.4618 160 60.4416C159.98 60.4455 159.975 60.4466 159.98 60.4475C159.975 60.4476 159.939 60.4494 159.754 60.4608C159.535 60.4417 159.534 60.4483 159.326 60.3873C159.265 60.3854 159.206 60.3824 159.144 60.3797C159.071 60.429 159.002 60.4618 158.996 60.3739C158.965 60.373 158.935 60.371 158.908 60.3701C158.599 60.3603 158.289 60.3652 157.98 60.3701C157.97 60.371 157.96 60.373 157.95 60.3739C157.95 60.3922 157.909 60.3756 157.893 60.3759C157.878 60.376 157.858 60.3817 157.839 60.3857C157.829 60.3876 157.823 60.3895 157.813 60.3895C157.803 60.3898 157.793 60.3876 157.793 60.3784C157.763 60.3823 157.728 60.3677 157.698 60.3745C157.682 60.3774 157.672 60.3852 157.657 60.3914C157.617 60.4003 157.581 60.4123 157.542 60.4177C157.319 60.4488 157.317 60.4448 157.124 60.448C157.079 60.4451 157.033 60.4404 156.987 60.4368C156.942 60.4279 156.896 60.4146 156.85 60.4106C156.861 60.4144 156.896 60.4235 156.886 60.4275C156.871 60.4351 156.715 60.4304 156.681 60.4314L156.671 60.2165C156.536 60.2539 156.387 60.2579 156.104 60.2579C155.525 60.2579 154.945 60.2578 154.366 60.2579C154.108 60.2579 153.852 60.2581 153.594 60.2579C153.241 60.2582 152.887 60.2598 152.534 60.256C152.242 60.2531 151.951 60.2711 151.659 60.2671C151.481 60.2528 151.303 60.2391 151.126 60.2257C151.244 60.2296 151.387 60.2267 151.403 60.1937C151.742 59.4826 152.17 58.7858 152.481 58.0605C151.964 58.2724 151.932 58.1989 151.94 57.7062C151.93 57.7004 151.925 57.6875 151.925 57.6741C151.708 57.8597 151.514 58.0333 151.298 58.2546C151.229 58.3539 151.167 58.4377 151.107 58.4882C151.086 58.5375 151.061 58.5822 151.032 58.558C151.022 58.5514 151.022 58.5491 151.012 58.5429C150.957 58.5611 150.892 58.5438 150.819 58.5109C150.635 58.815 150.454 59.1195 150.274 59.4248C150.173 59.6653 150.07 59.9047 149.975 60.1466C150.01 60.1572 150.05 60.1675 150.086 60.1786C150.126 60.1897 149.945 60.2115 149.959 60.1675C149.962 60.1608 149.964 60.1519 149.969 60.1448C149.939 60.1359 149.904 60.1288 149.874 60.1203C149.872 60.1242 149.87 60.1279 149.87 60.1315C149.859 60.1239 149.854 60.1217 149.849 60.1146C148.008 59.6146 145.998 59.5682 144.304 58.6465C144.05 58.5302 143.803 58.3955 143.541 58.2961C143.329 58.2156 143.08 58.2224 142.886 58.1076C142.836 58.0778 143.068 57.9978 143.011 57.9832C142.823 57.9358 142.622 57.9341 142.423 57.9305C142.289 57.9661 142.164 57.9665 142.05 57.906C142.035 57.9041 142.02 57.9011 142.005 57.8984C141.98 57.9118 141.96 57.9251 141.941 57.9381C141.733 58.0535 141.418 58.1331 141.21 58.0247C141.052 58.0845 140.874 58.1503 140.601 58.2433C140.439 58.2982 140.171 58.5341 140.107 58.3809C140.032 58.2011 140.661 57.9372 140.465 57.9116C140.007 57.8527 139.999 59.0069 139.42 58.7879C139.005 59.0144 138.442 59.3433 137.931 59.4645C137.75 59.5731 137.57 59.6834 137.4 59.8036C137.355 59.8056 137.137 59.8094 136.984 59.8112C136.744 59.8969 136.474 59.9504 136.25 60.0204C135.147 60.3653 133.648 60.1774 132.598 59.9526C132.108 59.8477 131.663 59.6013 131.191 59.4381C130.385 59.1593 129.571 58.8966 128.762 58.6259C126.596 57.9963 125.726 57.7267 123.303 57.1183C122.371 56.8846 121.429 56.6916 120.494 56.4701C116.757 55.5841 113.02 54.6868 109.348 53.5699C109.225 53.569 109.105 53.5705 108.984 53.5775C108.171 53.6308 107.351 53.6384 106.543 53.7471C106.398 53.7667 106.257 53.7885 106.114 53.813C106.117 53.8268 106.118 53.842 106.118 53.8583C106.118 54.0678 106.046 54.2758 105.922 54.4651C106.027 54.639 106.087 54.8291 106.088 55.0191C106.09 55.2629 105.793 55.2148 105.344 55.0172C105.334 55.0221 105.329 55.0279 105.319 55.0323C104.95 55.2418 104.462 55.039 104.034 55.0399C103.975 55.0399 103.791 55.036 103.676 55.036C103.298 55.0943 103.028 55.1387 102.717 55.1868C102.742 55.1743 102.768 55.1578 102.789 55.1454C102.625 55.1543 102.452 55.152 102.301 55.1774C101.915 55.2412 101.524 55.2885 101.135 55.3338C101.12 55.3681 101.11 55.4001 101.1 55.4299C101.561 55.3598 102.12 55.2736 102.705 55.1831C101.697 55.7087 100.909 56.034 101.1 55.4299C100.988 55.4469 100.862 55.4678 100.752 55.4846C100.757 55.5073 100.768 55.5287 100.773 55.5505C100.638 55.5505 100.503 55.5506 100.368 55.5505C100.271 55.6506 100.124 55.6329 99.9678 55.6014C99.005 55.7438 97.9369 55.8957 96.0831 56.1535C95.2715 56.2664 94.459 56.3788 93.6475 56.4909C93.7213 56.5436 93.7935 56.5982 93.8663 56.6529C93.9254 56.6529 93.985 56.6529 94.0441 56.6529C94.0239 56.6431 93.9986 56.6378 93.9759 56.632C94.0719 56.6436 94.1461 56.6494 94.2103 56.6529C94.2891 56.653 94.368 56.6528 94.4468 56.6529C94.5837 56.6531 94.8383 56.5237 94.861 56.6548C94.8964 56.8513 94.8591 57.0466 94.8065 57.2428C94.8575 57.4337 94.8898 57.6244 94.8575 57.8157C94.8373 57.9342 94.6266 57.8388 94.4862 57.8214C94.3558 57.8224 94.222 57.8207 94.084 57.8139C93.7122 57.8136 93.3406 57.8139 92.9688 57.8139C92.6096 57.8139 92.25 57.8177 91.8907 57.8177C92.2413 57.8854 92.5792 57.9716 92.9023 58.123C93.0867 58.148 93.2732 58.1706 93.4571 58.1965C94.7481 58.3471 94.6389 58.3326 95.9786 58.4981C96.219 58.5279 96.461 58.547 96.6992 58.5904C96.8882 58.6246 97.0772 58.6673 97.2578 58.7317C97.368 58.7708 97.5655 58.7843 97.5645 58.8975C97.5615 59.2657 97.3558 59.6065 97.2502 59.9604C97.129 59.9546 97.0077 59.9546 96.887 59.9453C96.7496 59.9346 96.6142 59.9101 96.4768 59.8962C96.1711 59.8655 95.8647 59.8356 95.5588 59.8058C94.0243 59.6551 94.5742 59.7172 93.1506 59.5269C93.1486 59.5278 93.1466 59.5318 93.1466 59.5327C93.0365 59.5634 92.9289 59.598 92.8187 59.625C92.8158 59.6256 92.8086 59.6299 92.8086 59.6308C92.8107 59.5939 92.8136 59.5448 92.8127 59.4838C92.8026 59.4828 92.7874 59.4772 92.7773 59.4763C92.777 59.5087 92.7777 59.5346 92.7773 59.5686C92.7743 59.5334 92.7713 59.5086 92.7693 59.4743C92.7541 59.4724 92.739 59.4704 92.7238 59.4685C92.7339 59.5186 92.749 59.5679 92.7642 59.6231C92.7649 59.625 92.7646 59.6269 92.7662 59.6288C92.7692 59.6269 92.7763 59.6259 92.7763 59.6213C92.7764 59.611 92.7764 59.6048 92.7763 59.5968C92.7768 59.6057 92.7766 59.6159 92.7783 59.6271C92.779 59.6373 92.7935 59.6339 92.8086 59.6308C92.8067 59.6314 92.8067 59.6375 92.8046 59.6385C92.8006 59.7137 92.7895 59.7296 92.7642 59.6423C92.7107 59.6593 92.3843 59.4068 92.5379 59.6312C91.9373 59.6331 91.3354 59.6459 90.7352 59.6254C90.6776 59.6216 90.623 59.6121 90.5654 59.6121C90.478 59.6125 90.3906 59.6276 90.3037 59.6196C90.0041 59.5916 89.743 59.465 89.4639 59.369C89.2901 59.2775 89.133 59.3361 88.9404 59.3049C88.8631 59.292 88.7878 59.2693 88.7121 59.2503C88.6969 59.3155 88.6868 59.3236 88.6767 59.4142C88.752 59.9458 88.8985 59.9801 88.6413 59.9815C88.6413 59.9873 88.6262 59.9815 88.6211 59.9815H88.5756C88.5403 59.9815 88.5009 59.9815 88.466 59.9815C88.3791 59.9814 88.2953 59.9816 88.2084 59.9815C88.1129 59.9814 88.021 59.9816 87.927 59.9815C87.8042 59.9812 87.6789 59.9844 87.5562 59.9815C87.5258 59.9805 87.3263 59.9795 87.3177 59.9703C87.3137 59.9655 87.3379 59.9654 87.3329 59.9592C87.3279 59.8954 87.3177 59.8308 87.3126 59.767C87.2823 59.7875 87.249 59.8106 87.2187 59.8311L87.1444 60.4699C86.8726 60.4312 86.5964 60.4217 86.3221 60.4285C86.2448 60.4304 86.1716 60.4481 86.0958 60.4454C85.9392 60.4397 85.777 60.429 85.6214 60.421C85.239 60.3876 85.2804 60.3943 84.8753 60.3437C84.7738 60.3308 84.6914 60.3232 84.6217 60.3116C84.6116 60.3219 84.6015 60.3334 84.5965 60.3437C84.5662 60.377 84.5005 60.3475 84.456 60.3379C84.2509 60.2952 84.2443 60.2917 84.1746 60.2756H84.0185H83.7492H83.2219H82.7374H82.5576H82.21C82.1392 60.2756 82.0655 60.2757 82.0008 60.2756C81.8018 60.2756 81.6042 60.2762 81.4051 60.2756C81.3081 60.2749 81.2464 60.2747 81.1338 60.2795C81.1035 60.2795 81.0726 60.2801 81.0418 60.2795C80.8872 60.3386 80.6973 60.3356 80.534 60.3342H79.8582H79.4131C79.308 60.3342 79.2065 60.3342 79.1004 60.3342C78.9676 60.3341 78.8322 60.3341 78.6983 60.3342C78.6311 60.3341 78.4901 60.344 78.4305 60.3323C78.4355 60.3303 78.4507 60.3265 78.4558 60.3225C78.4305 60.3225 78.4038 60.3283 78.3775 60.3323C78.1865 60.3412 77.9966 60.3189 77.8052 60.3225C77.8061 60.2194 77.8012 60.1168 77.8012 60.0134C77.7709 60.1301 77.7436 60.246 77.7057 60.3602C77.6905 60.3998 77.6213 60.3573 77.5789 60.3526C77.448 60.3366 77.1818 60.2832 77.0711 60.2622L77.1413 59.9267H77.061V59.0523C76.9731 59.0527 76.8852 59.0552 76.7973 59.0562C76.7013 59.0569 76.6079 59.0556 76.5124 59.0486C76.1259 59.062 75.7392 59.0851 75.3542 59.0241L75.4633 57.8671C75.7977 57.9247 76.1315 57.904 76.4672 57.8916C76.5758 57.8935 76.6824 57.8982 76.7915 57.8973C76.9522 57.8964 77.1153 57.8971 77.276 57.8973C77.278 57.8975 77.3735 57.897 77.372 57.8973C77.0987 57.9249 77.2917 57.8456 76.9698 58.1555C76.9193 58.9483 76.888 58.3917 77.5265 57.7617C77.5366 57.7492 77.6255 57.7597 77.7064 57.7692C77.8155 57.7186 78.0019 57.7025 78.1929 57.7033L78.1889 57.6975C78.3248 57.698 78.4354 57.7064 78.5521 57.7126C78.5218 57.5841 78.5773 57.3938 78.7885 57.0436C78.6814 57.0485 78.5965 57.0294 78.593 56.94C78.591 56.8862 78.5929 56.8398 78.593 56.7911C78.4884 56.6073 78.5076 56.3043 78.7319 55.7848C78.8183 55.584 79.1805 55.8288 79.4038 55.8583C79.8519 55.9176 80.2342 55.9696 80.6128 56.0223C80.6127 55.9431 80.6158 55.8532 80.628 55.7566C80.0491 55.7161 79.4704 55.6804 78.8917 55.6397C78.3753 55.7819 77.8567 55.9163 77.3331 56.0298C76.9425 56.1143 76.5244 56.2387 76.1378 56.1391C75.964 56.0944 75.7881 56.0414 75.6163 55.9789C75.4531 56.01 75.3652 56.0257 75.1747 56.0618C75.2763 56.0161 75.3758 55.9718 75.4773 55.9261C75.101 55.7755 74.7471 55.5738 74.4735 55.2948C74.3345 55.1532 74.7882 55.0456 74.9443 54.9217C75.4005 54.8354 75.6861 54.7816 76.0087 54.7201C76.0441 54.6331 76.0891 54.5492 76.1396 54.4694C76.1346 54.3639 76.1346 54.2573 76.1415 54.1547C76.1465 54.0725 76.2588 54.1333 76.3664 54.1867C76.3815 54.1725 76.3967 54.1587 76.4118 54.1454C76.4168 54.1396 77.6376 54.2336 77.6852 54.2377C78.3991 54.2939 78.0283 54.2837 78.738 54.2715C79.0699 54.227 79.578 54.163 80.0563 54.1038C84.4752 52.8118 80.1382 53.9054 84.8435 52.7885C84.9571 52.7347 85.0955 52.7084 85.2456 52.6923C85.3264 52.6732 85.3572 52.6656 85.4431 52.6452C86.1392 52.5106 86.6093 52.4129 87.0564 52.3324C87.1797 52.0317 87.3231 51.738 87.5 51.4655C87.7682 51.0517 88.1744 50.9056 88.6171 50.8437C88.6272 50.8394 88.6374 50.8383 88.6424 50.8343C88.6414 50.8368 88.6404 50.8397 88.6384 50.8419C88.6485 50.8404 88.6637 50.8396 88.6738 50.8381C88.6839 50.8257 88.6889 50.8181 88.699 50.8061C88.6788 50.8145 88.6637 50.8217 88.6485 50.8306C88.7086 50.6686 88.7793 50.5138 88.889 50.3764C88.9582 50.2889 89.0926 50.1972 89.2482 50.1126C89.1027 50.2828 88.9249 50.5138 88.7033 50.8004C88.8811 50.7166 89.0599 50.6336 89.2365 50.5479C89.3137 50.428 89.3314 50.4017 89.4613 50.1993C89.5163 50.1833 89.574 50.1713 89.629 50.1561C89.5265 50.2625 89.4229 50.383 89.3264 50.5029C89.6053 50.3638 89.8743 50.212 90.1096 50.0186C89.9519 50.0626 89.7928 50.1057 89.6352 50.1505C89.711 50.0724 89.7847 50.0037 89.8519 49.9545C89.9696 49.8685 90.1091 49.8142 90.2541 49.7736C90.0883 49.7624 89.6146 49.916 89.258 50.109C89.7673 49.517 89.9561 49.5525 90.8283 49.5983C90.9572 49.621 91.085 49.6436 91.2133 49.6661C91.0648 49.6576 90.9152 49.6319 90.7717 49.6624C90.6035 49.6979 90.4216 49.7262 90.2541 49.7736C90.3248 49.7785 90.3435 49.8128 90.2662 49.8885C90.2157 49.9353 90.1616 49.9759 90.1096 50.0186C90.4627 49.9208 90.8169 49.8221 91.1688 49.7208C90.8702 49.8908 90.5805 50.0722 90.3329 50.3031C90.2419 50.388 90.1853 50.5022 90.1414 50.6197C90.1394 50.6195 90.1434 50.6198 90.1414 50.6197C90.1405 50.6215 90.137 50.6223 90.1354 50.6254C90.1344 50.6254 90.1363 50.6255 90.1354 50.6254C90.137 50.6223 90.1405 50.6215 90.1414 50.6197C90.2429 50.6259 90.2859 50.6417 90.1919 50.6707C90.1667 50.6787 90.1404 50.6862 90.1116 50.6934C90.1217 50.6715 90.1253 50.6468 90.1354 50.6254C89.9252 50.6139 89.4816 50.631 89.2834 50.6199C89.2581 50.6315 89.2429 50.6408 89.2187 50.652C89.1732 50.7122 89.1348 50.7606 89.0974 50.8102C89.4501 50.7911 89.8032 50.7809 90.115 50.7028C90.0847 50.7987 90.0518 50.8964 90.0094 50.9855C90.0745 51.2018 90.1604 51.4147 90.2438 51.6281C90.2741 51.6223 90.3746 51.6023 90.406 51.5961C90.6651 51.165 90.9722 50.7577 91.2907 50.3561C91.1513 50.773 91.0447 51.2026 91.021 51.4717C91.1271 51.4504 91.2907 51.4191 91.4135 51.3944C91.7318 51.0225 91.9895 50.6941 92.1655 50.4277C92.0806 50.4522 91.9962 50.4777 91.9118 50.5012C91.833 50.523 92.0008 49.5782 92.1988 49.4309C92.3125 49.3465 92.4292 49.2664 92.5484 49.1897C92.6277 49.3351 92.6176 49.5864 92.4079 50.0019C92.7151 49.8508 93.0324 49.7181 93.363 49.625C93.4494 49.6009 93.5358 49.5809 93.6247 49.5666C93.6899 49.5563 93.7637 49.5786 93.8238 49.5514C93.844 49.5412 93.7935 49.5167 93.7712 49.4987C93.9673 49.3654 94.1704 49.2635 94.4118 49.2442C94.4139 49.2432 94.4158 49.2413 94.4158 49.2405C94.4613 49.2209 94.5093 49.2036 94.5563 49.1859C94.5866 49.1743 94.672 49.1289 94.6482 49.152C94.6078 49.1916 94.5437 49.2176 94.4881 49.2463C94.4982 49.2473 94.5083 49.2483 94.5133 49.2501C94.5032 49.2497 94.4881 49.2498 94.478 49.2501C94.427 49.2772 94.3815 49.3066 94.3668 49.3575C94.3466 49.4245 94.3214 49.5283 94.3062 49.6345C94.4441 49.5697 94.577 49.4965 94.7104 49.4253C94.7457 49.298 94.7791 49.1706 94.8316 49.0579C95.0524 49.0721 95.0751 49.0613 95.2201 49.1408C95.4682 48.9837 95.7077 48.8164 95.9311 48.6282C96.2589 48.3522 95.1753 48.0519 94.7436 48.1043C94.1344 48.1783 93.5982 48.5005 93.0502 48.7884C93.1341 48.767 93.2149 48.7466 93.3119 48.7205C93.4044 48.6655 93.4978 48.6098 93.5893 48.5528C93.7171 48.5479 94.0945 48.5031 93.9722 48.5377C93.7181 48.611 93.5068 48.6685 93.3119 48.7205C93.0527 48.8747 92.7898 49.025 92.5366 49.1879C92.4841 49.0946 92.4002 49.0412 92.3138 49.0145C92.2835 49.0274 92.2593 49.0408 92.232 49.0541C92.1547 49.1813 92.0718 49.3062 91.986 49.4291C92.04 49.4353 92.0829 49.4429 92.0501 49.4536C92.0147 49.4647 91.9824 49.4749 91.9486 49.4856C91.7414 49.7777 91.5161 50.0604 91.2924 50.343C91.3878 50.0573 91.4934 49.785 91.595 49.5912C91.503 49.6192 91.4116 49.6489 91.3196 49.676C91.3702 49.6853 91.406 49.6978 91.3762 49.6929C91.356 49.6891 91.3307 49.6853 91.3116 49.6817C91.2711 49.6938 91.2297 49.704 91.1883 49.7155C91.2135 49.7013 91.2388 49.688 91.2626 49.6742C91.3889 49.6034 91.5147 49.5321 91.6395 49.4612C91.6546 49.4523 91.6748 49.4434 91.692 49.4367C91.8046 49.2953 92.0112 49.1645 92.2272 49.0561C92.2373 49.0387 92.2524 49.0209 92.2626 49.0033C92.2221 48.9949 92.1888 48.9895 92.1549 48.9882C92.1852 48.9838 92.2343 48.973 92.2858 48.9637C92.2878 48.9605 92.2898 48.9593 92.2898 48.9561C92.31 48.9223 92.1134 48.9588 91.9831 48.9882C92.0559 48.9708 92.1504 48.9472 92.3853 48.8883C92.6055 48.836 92.6202 48.8323 92.7152 48.8091C93.1865 48.2422 93.8851 47.5233 94.5003 47.3524C94.8353 47.2593 95.1792 47.1966 95.5218 47.132C95.5839 47.1164 95.6946 47.0968 95.7895 47.0773C95.7875 47.0778 95.7915 47.077 95.7895 47.0773C95.7996 47.0758 95.8087 47.0732 95.8137 47.0716C95.8289 47.0682 95.8491 47.0658 95.8663 47.0623C95.986 47.0369 96.0775 47.0209 96.1927 46.9982C96.0866 46.9764 95.9795 46.9536 95.8724 46.9379C95.792 46.9522 95.7107 46.9611 95.6475 46.9682C95.597 46.9815 95.6041 46.9977 95.6041 46.972C95.6142 46.9715 95.6243 46.9686 95.6394 46.9662C95.6415 46.9659 95.6466 46.9685 95.6475 46.9682L95.1005 45.9392C95.3177 45.8464 95.198 45.8892 95.4658 45.8224C95.4961 45.8191 95.5244 45.8095 95.5537 45.813C95.5638 45.8141 95.5334 45.8313 95.5435 45.8299C95.6476 45.8166 95.7472 45.7788 95.8522 45.7715C96.1483 45.751 96.5156 45.9063 96.8054 45.9128C97.1368 45.9648 97.4685 46.0255 97.8015 46.0655C98.3012 46.1252 98.0703 46.0926 98.3855 46.1126C98.4577 46.1001 98.531 46.0917 98.6002 46.0788C98.7735 46.0463 98.9437 46.0024 99.1177 45.9732C99.1905 45.9336 99.2561 45.9016 99.2996 45.8903C99.4213 45.8591 99.5042 45.848 99.5845 45.8451L99.5745 45.8393C99.6553 45.8362 99.7356 45.8393 99.8457 45.8451C99.9695 45.8584 99.9826 45.8624 100.01 45.8678C100.025 45.8634 100.221 45.8583 100.223 45.8583C100.658 45.8632 101.094 45.8623 101.529 45.862C101.793 45.8618 101.692 45.862 102.053 45.862C102.142 45.8621 102.232 45.8531 102.32 45.862C102.516 45.8821 102.689 45.9201 102.863 45.9732C102.948 45.959 103.056 45.9757 103.135 45.9808C103.43 45.9692 103.723 46.0071 104.016 46.0411C104.34 46.1053 104.65 46.1613 104.969 46.2427C105.024 46.257 105.078 46.2677 105.133 46.2841C105.374 46.2432 105.618 46.2628 105.863 46.2672C106.074 46.2709 106.322 46.2721 106.535 46.273C106.927 46.2774 107.319 46.2646 107.711 46.2693C107.857 46.2695 108.008 46.2692 108.154 46.2693C108.298 46.2586 108.397 46.2848 108.494 46.3277C108.597 46.3281 108.693 46.3553 108.788 46.3917C108.98 46.3748 109.171 46.3851 109.364 46.386L109.244 45.7C109.554 45.6528 109.87 45.5853 110.186 45.6039C110.201 45.6047 110.211 45.6064 110.226 45.6077L110.222 45.5436C110.806 45.4691 111.392 45.5093 111.978 45.5133C111.869 45.7218 112.035 45.6469 112.204 45.568C112.208 45.5194 112.245 45.5103 112.339 45.5096C112.342 45.5084 112.344 45.5069 112.349 45.5058C112.352 45.4951 112.37 45.4907 112.385 45.4907C112.384 45.491 112.386 45.4903 112.385 45.4907C112.4 45.4864 112.413 45.4814 112.428 45.4796ZM126.361 45.5192C126.407 45.5161 126.462 45.5419 126.517 45.5624C126.434 45.5603 126.37 45.5627 126.31 45.5625C126.32 45.5393 126.336 45.521 126.361 45.5192ZM114.24 45.5776C114.225 45.5784 114.215 45.5801 114.2 45.5814C114.253 45.6391 114.352 45.7382 114.641 45.9168C114.651 45.9127 114.625 45.8571 114.605 45.8395C114.506 45.7479 114.395 45.6722 114.289 45.5889C114.299 45.5787 114.271 45.5767 114.24 45.5776ZM117.561 45.7981V46.3804C117.591 46.3822 117.616 46.3835 117.646 46.3862C117.662 46.2213 117.662 46.052 117.682 45.8887C117.612 45.8277 117.583 45.8064 117.561 45.7981ZM131.525 45.8942C131.551 45.9067 131.571 45.9209 131.59 45.932C131.587 45.9272 131.57 45.9102 131.565 45.9076C131.55 45.9033 131.541 45.8982 131.525 45.8942ZM108.643 46.3861C108.668 46.399 108.693 46.4119 108.717 46.4257C108.737 46.4363 108.681 46.3967 108.662 46.3901C108.652 46.3875 108.643 46.3877 108.643 46.3861ZM108.877 46.4123C108.892 46.4194 108.912 46.4275 108.928 46.435C108.938 46.4391 108.913 46.4226 108.903 46.4199C108.877 46.4141 108.887 46.4155 108.877 46.4123ZM103.41 46.4426C103.337 46.4464 103.21 46.5275 103.004 46.7346C103.082 46.7476 103.286 46.7725 103.426 46.7912C103.497 46.6333 103.531 46.4359 103.41 46.4426ZM116.238 46.8666C116.254 46.8687 116.292 46.8737 116.031 46.8893C115.977 46.8925 115.92 46.8759 115.867 46.8893C115.862 46.8907 115.857 46.895 115.852 46.8968C115.978 46.8976 116.103 46.8971 116.229 46.8968C116.232 46.8866 116.233 46.8768 116.238 46.8666ZM98.4415 47.27C98.396 47.2771 98.35 47.2856 98.3025 47.2927C98.5935 47.3549 98.8919 47.4396 99.2244 47.5415C99.3133 47.561 99.4038 47.5846 99.4922 47.6074C99.5377 47.6079 99.5842 47.6059 99.6327 47.6074C100.376 47.6296 101.122 47.6593 101.869 47.6997C101.904 47.6988 101.937 47.6992 101.971 47.6978C101.851 47.672 101.732 47.6435 101.611 47.6243C100.703 47.4801 100.044 47.4222 99.1562 47.3303C98.9188 47.3103 98.6789 47.2885 98.4415 47.27ZM143.613 47.5941C143.623 47.5999 143.639 47.6075 143.649 47.6128C143.659 47.6161 143.639 47.5972 143.634 47.5959C143.629 47.5951 143.618 47.5949 143.613 47.5941ZM98.2227 47.6092C98.2267 47.6106 98.2278 47.6118 98.2328 47.613C98.2308 47.6119 98.2298 47.6104 98.2288 47.6092H98.2227ZM98.2328 47.613C98.2732 47.6388 98.3192 47.6685 98.3596 47.6941C98.3697 47.692 98.3799 47.6883 98.39 47.6865C98.3748 47.6771 98.3596 47.6607 98.3445 47.6562C98.3041 47.6389 98.2717 47.6281 98.2328 47.613ZM112.344 47.8863C112.251 47.8916 112.174 47.8889 112.1 47.8921L112.055 47.9486C112.163 47.9571 112.272 47.9584 112.381 47.9637C112.396 47.9401 112.411 47.9168 112.426 47.894C112.401 47.8916 112.37 47.8885 112.344 47.8863ZM112.585 47.909C112.569 47.9294 112.554 47.9486 112.539 47.9693C112.74 47.9773 112.941 47.9928 113.143 47.9955C113.092 47.9817 113.069 47.9697 112.838 47.9314C112.798 47.9252 112.916 47.9483 112.951 47.967C112.982 47.9844 112.883 47.9426 112.848 47.9368C112.767 47.9234 112.684 47.9185 112.604 47.9105C112.599 47.91 112.59 47.9097 112.585 47.909ZM118.733 48.0597C118.737 48.2584 118.743 48.4581 118.743 48.6571C118.748 48.6569 118.758 48.6572 118.763 48.6571C118.814 48.4155 118.866 48.1737 118.828 48.0597H118.733ZM140.913 48.3575C140.918 48.398 140.923 48.4371 140.938 48.4931C140.948 48.4566 140.963 48.4035 140.973 48.3631C140.953 48.3612 140.934 48.3606 140.913 48.3575ZM108.36 48.5478C108.461 48.582 108.56 48.603 108.663 48.642C108.698 48.6438 108.731 48.644 108.764 48.6496H108.991C108.725 48.6019 108.545 48.5755 108.36 48.5478ZM94.5436 49.2375C94.5486 49.2374 94.5588 49.2372 94.5638 49.2375C94.5891 49.2395 94.6467 49.2553 94.6613 49.2602C94.6209 49.2567 94.5825 49.2446 94.5436 49.2375ZM94.3016 49.9121C94.3117 49.9635 94.3269 49.9965 94.3643 49.9913C94.344 49.961 94.3238 49.9381 94.3016 49.9121ZM92.1727 50.3813C92.1677 50.3889 92.1677 50.3942 92.1626 50.4022C92.1676 50.4004 92.1778 50.3998 92.1828 50.3965L92.1727 50.3813ZM94.5067 50.4022C94.4541 50.4338 94.4011 50.4649 94.3486 50.4965C94.3081 50.5112 94.2677 50.5254 94.2273 50.5397C94.2475 50.625 94.2626 50.7109 94.2818 50.7959C94.2919 50.7934 94.297 50.7941 94.3071 50.7902C94.3779 50.6774 94.445 50.564 94.5062 50.4453C94.5112 50.4346 94.5036 50.4147 94.5067 50.4022ZM89.1629 50.6473C89.0013 50.7181 88.8659 50.7695 88.7623 50.8056C88.8649 50.7953 88.971 50.7887 89.0751 50.7829C89.0902 50.7562 89.1392 50.6843 89.1629 50.6473ZM153.852 50.7321C153.852 50.757 153.85 50.7823 153.85 50.8074C153.853 50.8088 153.855 50.8098 153.86 50.8112C153.861 50.7845 153.857 50.7567 153.852 50.7321ZM88.6551 50.8433C88.645 50.8461 88.64 50.8481 88.6299 50.8508C88.6249 50.8664 88.6197 50.8819 88.6147 50.8979C88.6299 50.877 88.64 50.8636 88.6551 50.8433ZM88.4444 50.9055C88.3671 50.9277 88.3242 50.9501 88.2782 50.9978C88.3343 50.9675 88.3874 50.9342 88.4444 50.9055ZM151.136 51.0053C150.81 51.0594 150.463 51.118 150.052 51.1863C149.864 51.249 149.677 51.312 149.489 51.3747C149.499 51.3783 149.51 51.3809 149.515 51.3841C149.914 51.2692 150.512 51.1367 151.136 51.0053ZM88.1339 51.1957C88.0884 51.2718 88.0349 51.3866 87.9854 51.5161C88.0056 51.509 88.0309 51.5005 88.0501 51.4934C88.0753 51.3937 88.1051 51.2949 88.1339 51.1957ZM88.88 51.2654C88.8103 51.2622 88.7401 51.2659 88.6729 51.2881C88.6077 51.3086 88.5632 51.3242 88.5051 51.3428C88.4546 51.572 88.4142 51.8058 88.3511 52.0287C88.5461 51.9822 88.7416 51.9362 88.937 51.8911L89.0931 51.2919C89.0214 51.2807 88.9497 51.2686 88.88 51.2654ZM88.1886 51.4445C88.1381 51.4618 88.0955 51.4772 88.0501 51.4934C87.9884 51.7155 87.9142 51.9377 87.8233 52.1492C87.8637 52.1399 87.9001 52.1341 87.9385 52.1247C87.9486 51.9227 87.9739 51.7172 88.0537 51.6178C88.1057 51.552 88.1401 51.5063 88.1886 51.4445ZM87.9854 51.5161C87.5145 51.6994 87.4191 51.8714 87.1163 52.3019C87.2103 52.2854 87.3118 52.2614 87.4053 52.2473C87.5321 52.2161 87.6614 52.1914 87.7882 52.1605C87.8135 52.0314 87.8924 51.761 87.9854 51.5161ZM103.497 52.4809C103.494 52.4876 103.492 52.4965 103.487 52.5036C103.502 52.5303 103.512 52.5572 103.527 52.5846C103.548 52.5836 103.563 52.5819 103.584 52.5809C103.594 52.5551 103.599 52.5293 103.609 52.4999C103.569 52.4945 103.535 52.4854 103.497 52.4809ZM102.286 53.589C102.184 53.5948 102.082 53.6188 101.98 53.621C101.786 53.6253 101.59 53.6117 101.396 53.6117C101.365 53.6116 101.337 53.6116 101.308 53.6117C101.277 53.6159 101.255 53.6241 101.226 53.6286C101.261 53.6948 101.301 53.7664 101.347 53.8434C101.571 53.8427 101.58 53.8443 101.835 53.8434C101.845 53.8318 101.855 53.8207 101.86 53.8114C101.85 53.8194 101.85 53.8309 101.85 53.8434C101.848 53.8434 101.846 53.8434 101.835 53.8434C101.83 53.8523 101.821 53.8656 101.816 53.8754C101.831 53.8745 101.841 53.8706 101.856 53.8697C101.857 53.8716 101.859 53.8735 101.86 53.8754C101.845 53.8754 101.831 53.8754 101.816 53.8754C101.801 53.8764 101.793 53.8783 101.778 53.8793C101.788 53.8793 101.803 53.8793 101.813 53.8793C101.783 53.926 101.757 53.9832 101.733 54.0432L101.906 54.0508C101.891 53.9936 101.876 53.929 101.86 53.8754L101.863 53.8793C101.888 53.8794 101.914 53.8792 101.939 53.8793C101.954 53.8794 102.078 53.8792 102.111 53.8793C102.101 53.8704 102.096 53.8593 102.086 53.8491C102.011 53.8557 101.935 53.8683 101.86 53.8754C101.859 53.8716 101.86 53.861 101.859 53.8566C101.858 53.8517 101.857 53.849 101.857 53.8455C101.972 53.845 101.955 53.8451 102.08 53.8436C102.065 53.8262 102.049 53.8084 102.034 53.7908C102.029 53.785 102.024 53.7837 102.019 53.7797C102.039 53.7787 102.06 53.7769 102.076 53.7759C101.973 53.6762 101.891 53.6718 101.738 53.7062C101.803 53.6942 101.868 53.6764 101.935 53.6724C102.069 53.6643 102.226 53.6679 102.373 53.7044C102.436 53.683 102.501 53.6617 102.564 53.6403C102.524 53.6247 102.469 53.6101 102.391 53.6007C102.355 53.5968 102.325 53.5949 102.291 53.597L102.286 53.589ZM133.966 53.7397C133.763 53.7557 133.563 53.774 133.36 53.7887C132.846 53.827 132.327 53.8069 131.812 53.8132C131.251 53.87 130.69 53.9283 130.128 53.9809C129.935 53.9992 129.737 53.9974 129.542 53.9978C129.763 54.0618 129.909 54.103 130.157 54.175C131.66 54.2795 132.873 55.2875 134.304 55.6033C134.409 55.6265 134.522 55.631 134.63 55.6296C134.63 55.528 134.632 55.4264 134.645 55.3243C134.646 55.3092 134.65 55.2972 134.655 55.2829C134.64 55.2836 134.61 55.2858 134.599 55.2868C134.47 55.3404 134.356 55.3691 134.31 55.2699C134.275 55.1929 134.264 55.1125 134.264 55.0305C134.149 54.7261 133.991 54.4188 134.095 54.1279C134.174 53.906 134.572 54.0349 134.813 54.0035C135.364 53.9323 135.918 53.8811 136.47 53.8188C135.955 53.8037 135.44 53.768 134.925 53.7585C134.333 53.7478 134.316 53.7483 133.972 53.7416L133.966 53.7397ZM101.941 53.7566C101.966 53.7504 101.991 53.7573 102.011 53.7736C101.949 53.7767 101.894 53.7824 101.868 53.8056C101.894 53.7802 101.919 53.7629 101.941 53.7566ZM103.091 53.7718C102.932 53.782 102.776 53.7927 102.618 53.8038C102.643 53.8243 102.671 53.8474 102.694 53.8735C102.927 53.8743 103.029 53.8754 103.274 53.8774C103.214 53.8422 103.152 53.8063 103.091 53.7718ZM102.146 53.8584C102.142 53.8633 102.135 53.8691 102.135 53.8736C102.14 53.8736 102.151 53.8736 102.151 53.8736C102.147 53.8638 102.151 53.8697 102.146 53.8584ZM102.12 53.894C102.075 53.9487 102.039 53.9966 101.999 54.0486L102.029 54.0505C102.094 54.0416 102.15 54.034 102.215 54.026C102.212 54.0194 102.2 53.9975 102.2 53.994C102.174 53.9624 102.148 53.9274 102.12 53.894ZM104.04 54.3237C104.036 54.3256 104.03 54.3295 104.03 54.3313C104.015 54.3943 103.99 54.4585 103.963 54.5254C104.038 54.4853 104.11 54.4477 104.184 54.4085C104.134 54.3809 104.089 54.3518 104.04 54.3237ZM139.472 54.9587C139.442 54.9626 139.413 54.9703 139.382 54.9739C139.417 55.0037 139.458 55.0333 139.493 55.0625C139.497 55.0576 139.498 55.0504 139.503 55.0455C139.488 55.0282 139.468 55.0095 139.452 54.9928C139.462 54.9826 139.467 54.9694 139.472 54.9587ZM137.054 55.1472C136.994 55.151 136.933 55.1539 136.868 55.1583C136.858 55.1632 136.843 55.169 136.833 55.1734C136.823 55.1715 136.803 55.1659 136.788 55.1623C136.701 55.1681 136.639 55.1721 136.545 55.1774C136.596 55.1943 136.646 55.2104 136.696 55.2283C136.741 55.2101 136.781 55.1947 136.833 55.1734C136.838 55.1744 136.846 55.1756 136.851 55.1756C137.645 55.2059 137.096 55.1766 137.058 55.1737C137.058 55.1648 137.054 55.1565 137.054 55.1472ZM136.452 55.185C136.142 55.2033 135.941 55.2144 135.638 55.2303C135.293 55.9204 134.979 56.6917 134.855 57.1204C134.719 56.6469 134.63 56.1676 134.626 55.6844C133.809 56.0847 134.424 56.7682 134.153 58.9671C134.246 59.0222 135.934 60.2587 136.573 59.8152C136.236 59.8113 135.921 59.8009 135.907 59.7699C135.572 58.9778 135.179 58.1643 134.917 57.3352C134.907 57.3521 134.897 57.3637 134.882 57.3805C134.766 57.5344 134.773 57.4039 134.855 57.1204C134.875 57.1918 134.895 57.2641 134.917 57.3352C135.757 56.221 136.05 55.6701 136.111 55.4225C135.559 55.5244 136.224 54.9658 136.111 55.4225C136.196 55.4069 136.309 55.3749 136.457 55.3227C136.456 55.2767 136.452 55.2308 136.452 55.185ZM156.468 55.5355C156.409 55.5804 156.363 55.617 156.308 55.6599C156.309 55.6618 156.308 55.6648 156.308 55.6674C156.361 55.6238 156.415 55.5812 156.468 55.5355ZM160.687 56.197C160.334 56.3069 160.499 56.2523 160.687 56.197V56.197ZM93.925 56.6191C93.9503 56.628 93.976 56.6356 94.0033 56.6418C93.9932 56.6409 93.9881 56.6399 93.978 56.6379C93.9578 56.636 93.9083 56.6133 93.925 56.6191ZM160.224 56.9715C160.194 56.9719 160.164 56.9734 160.134 56.9734C160.164 56.9996 160.202 57.0279 160.237 57.0563C160.248 57.0487 160.253 57.0398 160.263 57.0318C160.253 57.0109 160.239 56.993 160.224 56.9715ZM160.482 56.9942C160.456 57.012 160.427 57.028 160.4 57.045C160.415 57.0593 160.43 57.0722 160.445 57.0864C160.46 57.0845 160.47 57.0797 160.481 57.0766C160.501 57.0526 160.526 57.0277 160.547 57.0031C160.526 56.9982 160.501 56.9982 160.482 56.9942ZM162.194 57.0039C162.193 57.0029 162.195 57.0046 162.194 57.0039V57.0039ZM162.194 57.0039C162.199 57.0422 162.214 57.0941 162.219 57.1491C162.224 57.1471 162.229 57.1471 162.234 57.1452C162.23 57.0829 162.229 57.0907 162.224 57.0171C162.214 57.0132 162.204 57.0075 162.194 57.0039ZM162.234 57.1981C162.238 57.202 162.239 57.207 162.244 57.2115C162.243 57.2057 162.244 57.2039 162.244 57.1981C162.241 57.198 162.239 57.198 162.234 57.1981ZM162.62 57.4148C162.61 57.4019 162.651 57.4259 162.666 57.4317C162.669 57.4327 162.671 57.4366 162.676 57.4375C162.661 57.4346 162.651 57.4326 162.635 57.4317C162.631 57.4268 162.625 57.4202 162.62 57.4148ZM141.743 57.8105C141.713 57.8248 141.661 57.8467 141.634 57.8596C141.664 57.8547 141.707 57.8391 141.759 57.8182C141.755 57.8153 141.748 57.8132 141.743 57.8105ZM162.97 57.9236L162.833 58.0405C162.853 58.0609 162.863 58.0866 162.884 58.1045C162.955 58.1636 162.967 58.0575 162.97 57.9236ZM163.743 58.031C163.784 58.0693 163.823 58.1076 163.865 58.1441C163.89 58.1668 163.829 58.0857 163.802 58.065C163.782 58.0516 163.767 58.0408 163.743 58.031ZM139.003 58.7886C138.776 58.9635 138.528 59.1156 138.276 59.2653C138.511 59.2074 138.725 59.1327 138.827 59.026C138.896 58.9538 138.955 58.8739 139.003 58.7886ZM79.5929 58.9242C79.6283 58.9951 79.6434 59.0788 79.6591 59.1598H79.7682C79.7429 59.0998 79.7167 59.0206 79.6919 58.9845C79.6667 58.9512 79.6328 58.936 79.5929 58.9242ZM86.925 59.075C86.8482 59.1347 86.7724 59.1985 86.7082 59.2654C86.7936 59.2683 86.8759 59.2711 86.9603 59.2765C86.9573 59.2118 86.9553 59.1469 86.9502 59.0824C86.9401 59.0805 86.93 59.0777 86.925 59.075ZM168.138 59.2767C168.073 59.2842 168.011 59.3056 167.95 59.3294H168.072C168.145 59.2965 168.193 59.2699 168.138 59.2767ZM155.64 59.3859C155.645 59.3879 155.65 59.3937 155.655 59.3954C155.653 59.3945 155.64 59.3868 155.64 59.3859ZM155.655 59.3954C155.66 59.3974 155.665 59.4034 155.67 59.4052C155.667 59.4033 155.655 59.3977 155.655 59.3954ZM155.67 59.4052C155.721 59.4337 155.866 59.5059 155.94 59.5431C156.001 59.5533 156.033 59.5649 156.088 59.5751C155.951 59.5151 155.812 59.4554 155.67 59.4052ZM168.36 59.4676C168.349 59.4705 168.344 59.4734 168.334 59.4774C168.304 59.5112 168.215 59.6083 168.248 59.5792C168.289 59.5445 168.324 59.5057 168.36 59.4676ZM93.0666 59.5185C93.0363 59.5287 93.008 59.5406 92.9807 59.5544C92.9297 59.5806 93.0504 59.5542 93.1348 59.5299C93.1197 59.528 93.0812 59.5221 93.0666 59.5185ZM92.7695 59.6353C92.7693 59.6344 92.7709 59.6363 92.7695 59.6353V59.6353ZM96.8867 59.8426C96.8864 59.8484 96.8847 59.8524 96.8847 59.8577C96.8838 59.88 96.9696 59.8724 96.9474 59.8653C96.917 59.8564 96.9019 59.8506 96.8867 59.8426ZM77.4863 59.9199C77.456 60.039 77.4272 60.1585 77.3984 60.2779C77.3954 60.29 77.4288 60.3064 77.4338 60.2949C77.4742 60.1703 77.5066 60.0455 77.5414 59.9199C77.5212 59.9199 77.502 59.9199 77.4863 59.9199ZM168.771 60.3345C168.77 60.334 168.782 60.3403 168.787 60.342C168.822 60.3509 168.851 60.3554 168.879 60.3589C168.843 60.3523 168.812 60.3425 168.771 60.3345Z" fill="white"/>
</mask>
<g mask="url(#mask0_1_101)">
<path d="M46.2133 139.939L2.96576 131.118L54.8628 102.249C71.5018 36.5805 141.342 39.1208 166.851 64.9609C200.889 107.83 183.824 159.559 106.305 159.185C27.0297 148.537 -37.852 225.866 78.5351 277.065C203.096 323.287 329.765 221.714 314.803 72.1781" stroke="#E8F9FF" stroke-width="5.66929" stroke-linecap="round" stroke-linejoin="round"/>
</g>
<mask id="mask1_1_101" style="mask-type:luminance" maskUnits="userSpaceOnUse" x="53" y="70" width="214" height="194">
<path d="M53.9805 70.3676V263.144H266.328V70.3676H53.9805Z" fill="white"/>
</mask>
<g mask="url(#mask1_1_101)">
<path d="M161.844 252.206C49.2635 291.78 20.7018 178.444 108.581 182.44C157.314 184.908 260.825 150.47 263.361 72.98" stroke="#E8F9FF" stroke-width="5.66929" stroke-linecap="round" stroke-linejoin="round"/>
</g>
<mask id="mask2_1_101" style="mask-type:luminance" maskUnits="userSpaceOnUse" x="34" y="0" width="187" height="67">
<path d="M34.0762 0V66.2633H220.1V0H34.0762ZM112.434 45.4758C112.462 45.4731 112.479 45.4802 112.481 45.5042C112.56 45.505 112.64 45.5047 112.719 45.5042C113.119 45.5044 113.518 45.5043 113.918 45.5042C114.129 45.5028 114.129 45.5064 114.193 45.5759C114.291 45.5598 114.382 45.5594 114.484 45.5609C114.697 45.5653 114.909 45.5635 115.121 45.5628C115.212 45.5631 115.304 45.5629 115.395 45.5628C115.597 45.5628 115.8 45.5628 116.002 45.5628H116.346H116.758H116.945H117.154H117.514H117.559V45.6891C117.573 45.6866 117.587 45.6851 117.602 45.6832C117.665 45.6807 117.728 45.6834 117.791 45.6832C117.992 45.5732 118.172 45.538 118.363 45.5381C118.478 45.5385 118.599 45.5513 118.731 45.5684C118.873 45.5783 118.94 45.5664 119.053 45.5608C119.237 45.563 119.422 45.5634 119.606 45.5627C119.724 45.5624 119.842 45.5627 119.961 45.5627C120.057 45.5627 120.154 45.5627 120.25 45.5627C120.548 45.5627 120.845 45.5627 121.143 45.5627H121.461H121.699H121.934H122.551H123.264H123.496H123.793H124.129H124.242C124.424 45.5627 124.614 45.5536 124.801 45.5627C124.878 45.5474 124.962 45.5802 125.039 45.5627C125.049 45.5627 125.11 45.5624 125.137 45.5627C125.137 45.5514 125.162 45.5627 125.174 45.5627C125.195 45.5626 125.215 45.5625 125.232 45.5627C125.261 45.5627 125.29 45.5627 125.318 45.5627C125.599 45.5623 125.878 45.5616 126.158 45.5608C126.217 45.5608 126.26 45.5606 126.305 45.5608C126.315 45.5338 126.334 45.5211 126.359 45.5193C126.402 45.5162 126.462 45.5415 126.518 45.5626C126.43 45.5605 126.367 45.5611 126.305 45.5608C126.299 45.5753 126.296 45.5961 126.297 45.621C126.363 45.621 126.43 45.621 126.496 45.621C126.509 45.621 126.522 45.621 126.535 45.621C126.55 45.6075 126.566 45.5937 126.582 45.5833C126.563 45.5782 126.543 45.5705 126.521 45.5625C126.547 45.5634 126.572 45.5665 126.598 45.5683C126.601 45.5685 126.606 45.5686 126.609 45.5683C126.658 45.5436 126.711 45.5348 126.771 45.5457C126.834 45.557 126.882 45.583 126.922 45.6211C126.935 45.6211 126.948 45.6211 126.961 45.6211C126.944 45.6164 126.93 45.612 126.918 45.6062C126.893 45.593 126.938 45.6087 126.984 45.6211H127.004C127.071 45.6211 127.138 45.6211 127.205 45.6211C127.29 45.6211 127.376 45.6211 127.461 45.6211H127.977C127.978 45.6211 127.98 45.6212 127.981 45.6211C129.012 45.5841 130.047 45.4918 131.075 45.6455C131.209 45.666 131.335 45.7237 131.465 45.7624L131.438 45.851C131.637 45.8415 131.836 45.8572 132.036 45.8546C132.143 45.8519 132.249 45.8526 132.356 45.8527C132.431 45.8525 132.507 45.8527 132.582 45.8527C132.688 45.8527 132.795 45.8527 132.901 45.8527H133.184H133.43H133.864H134.336H134.526H135.239H136.506H136.684V46.8986C136.739 46.8976 136.79 46.8966 136.879 46.8966H137.725C137.894 46.9108 138.064 46.885 138.233 46.8966C138.701 46.9287 138.946 46.9651 139.393 47.0172C139.912 47.0777 140.174 47.1054 140.663 47.1604C141.2 47.2212 141.739 47.2538 142.272 47.3451C142.432 47.3724 142.531 47.416 142.686 47.3847C142.986 47.3811 143.186 47.4153 143.467 47.5241C143.505 47.5387 143.539 47.5562 143.575 47.575C143.738 47.5808 143.899 47.5965 144.063 47.5994C144.115 47.6003 144.169 47.5939 144.221 47.5994C144.567 47.6361 144.65 47.6588 144.957 47.7219C145.247 47.7687 145.523 47.8706 145.809 47.9292C145.819 47.9313 145.839 47.9294 145.854 47.9292C145.855 47.929 145.857 47.9294 145.858 47.9292C145.92 47.9146 146.003 47.8945 146.016 47.8915C146.06 47.8885 146.104 47.8857 146.147 47.882C146.601 47.8122 147.157 47.7292 147.641 47.6559C147.671 47.6504 147.695 47.6457 147.725 47.6388C147.871 47.6114 148.019 47.5944 148.167 47.5766C148.269 47.5609 148.356 47.5474 148.464 47.5314C148.467 47.5307 148.468 47.5302 148.472 47.5294C148.718 47.4632 148.982 47.3159 149.194 47.4069C149.412 47.3304 149.684 47.1698 149.739 47.3429C149.8 47.5323 149.797 47.7445 149.749 47.9497C149.757 47.9635 149.765 47.977 149.772 47.9911C149.807 47.9919 149.842 47.9933 149.876 48.0006C150.105 48.042 150.081 48.0388 150.255 48.1061C150.249 48.0956 150.224 48.0803 150.235 48.0741C150.258 48.0609 150.287 48.0679 150.313 48.0721C151.017 48.1916 150.384 48.0816 150.866 48.2361C150.931 48.2572 151 48.2638 151.067 48.2775C151.148 48.2943 151.229 48.3111 151.309 48.3284C151.325 48.3303 151.342 48.3297 151.358 48.3342C151.583 48.2453 151.805 48.1624 151.884 48.3306C151.921 48.4094 151.948 48.4826 151.971 48.553C151.988 48.5712 152.005 48.59 152.02 48.6076C152.124 48.6033 152.227 48.5971 152.331 48.5927C152.684 48.5774 153.175 48.2855 153.391 48.555C153.42 48.5908 153.439 48.6213 153.464 48.6549C153.486 48.6647 153.508 48.675 153.528 48.687C153.59 48.6786 153.652 48.6688 153.714 48.6607C154.49 48.5602 155.316 48.1838 156.054 48.4403C156.176 48.4829 156.306 48.56 156.43 48.6588C156.442 48.6588 156.454 48.6568 156.466 48.6569C156.566 48.6582 156.592 48.7072 156.567 48.7813C156.784 48.9922 156.951 49.2566 156.956 49.4861C156.966 49.4945 156.977 49.5018 156.987 49.5105C157.159 49.6587 157.079 49.8784 156.899 50.0909C157.079 50.3037 157.159 50.5249 156.987 50.6732C156.46 51.1273 155.718 51.036 154.888 50.7222C154.634 50.6909 154.379 50.66 154.132 50.6714C154.13 50.672 154.128 50.6725 154.126 50.6733C154.055 50.6875 153.985 50.7039 153.915 50.7185C153.928 50.7678 153.939 50.8181 153.952 50.8674C154.116 50.9662 154.26 51.0785 154.335 51.2443C154.406 51.403 154.324 51.5853 154.21 51.7455C154.768 51.6632 155.328 51.5821 155.885 51.4968C157.556 51.2412 159.21 50.674 160.897 50.7279C161.296 50.5599 161.69 50.4048 161.93 50.6695C162.057 50.8089 162.034 50.9983 161.936 51.1859C162.125 51.3808 162.228 51.611 162.138 51.8172C161.911 52.3321 160.996 52.0063 160.425 52.1017C160.359 52.1105 160.314 52.1159 160.249 52.1243C160.019 52.1746 159.787 52.2145 159.554 52.2506C159.646 52.361 159.736 52.4845 159.821 52.6218C159.908 52.7616 159.511 52.7605 159.345 52.7876C159.093 52.8286 158.841 52.8652 158.589 52.9007C158.635 52.9713 158.677 53.0438 158.716 53.1174C158.732 53.1165 158.734 53.1182 158.749 53.1174C158.964 53.038 159.166 53.0065 159.327 53.14C159.427 53.2224 159.459 53.3502 159.446 53.4905C159.616 53.7254 159.704 54.0161 159.606 54.2349C159.651 54.3081 159.696 54.3842 159.739 54.4686C159.839 54.6633 159.526 54.8154 159.267 54.9152C159.527 54.9133 159.853 54.9133 159.888 54.9133C160.721 54.8907 160.915 55.1155 161.972 55.5163C162.067 55.641 163.286 56.6839 162.903 56.4378C161.613 55.6077 163.108 56.0188 160.683 55.8385C160.527 55.8269 160.405 55.8258 160.282 55.8254C160.33 55.8495 160.376 55.8747 160.421 55.9045C160.44 55.9187 160.47 55.9412 160.503 55.9667C160.667 56.0066 160.718 56.0656 160.806 56.1722C161.032 56.2518 161.171 56.4821 161.378 56.6018C161.445 56.6407 161.309 56.4489 161.235 56.3813C161.221 56.3773 161.205 56.3744 161.19 56.3719C161.189 56.3503 161.21 56.3576 161.235 56.3813C161.246 56.3842 161.258 56.3883 161.269 56.3926C161.381 56.4394 161.482 56.5034 161.589 56.5604C161.588 56.5584 161.585 56.5563 161.587 56.5563C161.596 56.5583 161.614 56.572 161.62 56.5771C161.61 56.5713 161.599 56.5666 161.589 56.5604C161.591 56.5644 161.595 56.5695 161.597 56.5731C161.646 56.5968 161.694 56.621 161.743 56.6447C161.844 56.7064 161.946 56.7497 162.028 56.8294C162.034 56.8352 162.036 56.8436 162.042 56.8483C162.089 56.8841 162.172 56.894 162.187 56.9501C162.187 56.952 162.187 56.9549 162.189 56.9578C162.468 57.0993 162.365 57.0719 162.511 57.182C162.533 57.1963 162.604 57.2285 162.577 57.2254C162.534 57.2206 162.5 57.1808 162.456 57.1763C162.443 57.1754 162.43 57.1755 162.417 57.1763C162.457 57.2335 162.485 57.2993 162.513 57.3648C162.521 57.3657 162.528 57.3677 162.536 57.3688C162.559 57.3925 162.57 57.4056 162.591 57.4272C162.608 57.4282 162.625 57.4292 162.642 57.4312C162.637 57.4254 162.634 57.4203 162.63 57.4141C162.62 57.4013 162.661 57.4272 162.677 57.4331C162.68 57.434 162.684 57.436 162.687 57.4371C162.673 57.4342 162.656 57.4323 162.642 57.4312C162.667 57.4648 162.695 57.5003 162.724 57.5349C162.791 57.5469 162.863 57.5615 162.937 57.5782C162.876 57.5008 162.815 57.4248 162.761 57.3426C162.749 57.3251 162.796 57.3663 162.813 57.3784C162.866 57.4141 162.918 57.4507 162.972 57.4858C163.157 57.608 163.341 57.7332 163.542 57.8306C163.595 57.8819 163.648 57.9353 163.7 57.987C163.721 57.9976 163.741 58.0094 163.753 58.0174C163.979 58.1666 163.991 58.1768 164.06 58.285C164.299 58.285 164.538 58.285 164.776 58.285C165.029 58.285 165.281 58.285 165.534 58.285C165.893 58.2851 166.25 58.2842 166.608 58.2831C166.94 58.2827 167.272 58.2837 167.603 58.2889C167.604 58.2889 167.606 58.2889 167.607 58.2889C167.645 58.2754 167.723 58.2703 167.786 58.2699C167.808 58.2699 167.829 58.2694 167.845 58.2699C168.146 58.2805 168.473 58.3002 168.769 58.3152L168.718 59.2405C168.844 59.2038 168.956 59.1869 169.083 59.212C169.088 59.2119 169.092 59.214 169.095 59.214C169.099 59.2144 169.105 59.2143 169.101 59.2159C169.139 59.2246 169.179 59.2334 169.222 59.248C169.234 59.2527 169.264 59.2647 169.273 59.2688C169.213 59.2527 169.153 59.2378 169.093 59.2217C169.09 59.2216 169.084 59.2216 169.082 59.2217C168.987 59.2552 168.893 59.2856 168.798 59.3178C168.778 59.3353 168.76 59.3531 168.74 59.3705L169.673 60.1055C169.637 60.1421 169.6 60.1764 169.564 60.2129C169.223 60.3584 169.199 60.4005 169.013 60.3731C168.922 60.4137 168.83 60.4536 168.738 60.4918C168.713 60.502 168.685 60.4918 168.658 60.4918H168.349H167.947H167.589H167.007H166.068H165.693H165.318H164.888H164.587C164.408 60.4918 164.229 60.4918 164.05 60.4918C163.765 60.4918 163.48 60.4918 163.195 60.4918C162.616 60.4918 162.037 60.4917 161.459 60.4918C161.23 60.4918 161.003 60.4914 160.775 60.4918C160.677 60.4925 160.552 60.4958 160.478 60.4878C160.471 60.4874 160.47 60.4859 160.466 60.4859C160.48 60.4839 160.504 60.4789 160.525 60.4669C160.515 60.4698 160.477 60.4808 160.46 60.484C160.398 60.4943 160.333 60.523 160.271 60.5085C160.161 60.4829 160.081 60.4626 160.021 60.4425C160.001 60.4465 159.998 60.4472 160.001 60.4483C159.995 60.4485 159.959 60.4502 159.775 60.4614C159.556 60.4421 159.555 60.449 159.347 60.3879C159.286 60.386 159.228 60.3832 159.165 60.3803C159.092 60.4296 159.024 60.4626 159.017 60.3744C158.987 60.3735 158.955 60.3715 158.927 60.3704C158.618 60.3609 158.308 60.3657 157.999 60.3704C157.99 60.3714 157.979 60.3733 157.968 60.3744C157.968 60.3923 157.93 60.3761 157.911 60.3764C157.897 60.3765 157.875 60.384 157.857 60.3877C157.849 60.3896 157.84 60.3896 157.833 60.3896C157.823 60.3899 157.815 60.3877 157.814 60.3783C157.783 60.3823 157.748 60.3688 157.718 60.3743C157.703 60.3772 157.691 60.387 157.677 60.3932C157.638 60.402 157.601 60.414 157.562 60.4195C157.339 60.4508 157.335 60.4454 157.142 60.4479C157.096 60.445 157.051 60.4421 157.005 60.4385C156.961 60.4297 156.916 60.4162 156.87 60.4122C156.881 60.4162 156.914 60.4246 156.905 60.4293C156.889 60.437 156.734 60.4341 156.7 60.4352L156.692 60.2184C156.558 60.2565 156.408 60.26 156.124 60.26C155.545 60.26 154.967 60.2599 154.388 60.26C154.13 60.26 153.872 60.2601 153.614 60.26C153.261 60.2602 152.907 60.2619 152.554 60.258C152.262 60.2551 151.971 60.2759 151.679 60.2675C151.501 60.2533 151.323 60.2394 151.146 60.226C151.264 60.23 151.407 60.227 151.423 60.1939C151.764 59.4788 152.209 58.7811 152.521 58.0513C151.988 58.271 151.951 58.2039 151.96 57.7064C151.95 57.7006 151.948 57.6893 151.946 57.6761C151.729 57.8617 151.536 58.0353 151.319 58.2566C151.251 58.3559 151.188 58.4396 151.128 58.4902C151.106 58.5394 151.085 58.5843 151.054 58.56C151.045 58.5531 151.041 58.5512 151.032 58.545C150.977 58.5633 150.912 58.5479 150.839 58.5148C150.656 58.8189 150.474 59.1234 150.294 59.4287C150.193 59.6692 150.091 59.9087 149.993 60.1505C150.03 60.1611 150.068 60.1713 150.105 60.1826C150.143 60.1939 149.969 60.2077 149.983 60.1713C149.986 60.1644 149.991 60.1574 149.993 60.1505C149.962 60.1417 149.933 60.1326 149.902 60.1242C149.9 60.1283 149.894 60.1319 149.892 60.1355C149.884 60.1279 149.878 60.1242 149.87 60.1166C148.029 59.6166 146.018 59.5702 144.325 58.6486C144.071 58.5323 143.821 58.3975 143.56 58.2981C143.348 58.2176 143.101 58.2244 142.907 58.1096C142.857 58.0797 143.086 57.998 143.028 57.9834C142.842 57.9366 142.643 57.936 142.446 57.9326C142.312 57.9683 142.185 57.9665 142.071 57.9041C142.055 57.9012 142.038 57.9012 142.023 57.8983C141.999 57.9118 141.976 57.9267 141.952 57.9398C141.745 58.0552 141.427 58.1347 141.22 58.0264C141.062 58.0862 140.882 58.1522 140.608 58.245C140.447 58.2999 140.178 58.5358 140.114 58.3826C140.039 58.2028 140.669 57.9389 140.47 57.9133C140.012 57.8544 140.004 59.0086 139.425 58.7896C139.011 59.0161 138.448 59.345 137.937 59.4661C137.755 59.5748 137.575 59.685 137.405 59.8053C137.362 59.8073 137.144 59.8073 136.989 59.8093C136.749 59.895 136.479 59.9485 136.255 60.0185C135.152 60.3635 133.653 60.1755 132.603 59.9507C132.113 59.8458 131.668 59.5994 131.196 59.4362C130.39 59.1574 129.576 58.8947 128.767 58.624C126.601 57.9944 125.731 57.7248 123.308 57.1165C122.376 56.8827 121.434 56.6897 120.499 56.4682C116.767 55.5833 113.034 54.6886 109.366 53.5737C109.243 53.5727 109.12 53.5717 108.999 53.5813C108.186 53.6347 107.365 53.6422 106.558 53.7509C106.413 53.7703 106.27 53.7924 106.126 53.8169C106.129 53.8308 106.136 53.8457 106.136 53.8622C106.137 54.0717 106.06 54.2796 105.939 54.469C106.043 54.6429 106.109 54.833 106.111 55.023C106.113 55.2668 105.815 55.2186 105.366 55.0211C105.358 55.0258 105.351 55.0316 105.343 55.036C104.974 55.2454 104.486 55.0408 104.058 55.0419C103.998 55.0419 103.817 55.0378 103.702 55.0378C103.322 55.0965 103.053 55.1383 102.739 55.1867C102.763 55.1743 102.788 55.1597 102.812 55.1471C102.647 55.1559 102.478 55.1559 102.325 55.181C101.939 55.2448 101.551 55.2921 101.161 55.3375C101.147 55.3717 101.136 55.4037 101.126 55.4335C101.588 55.3632 102.148 55.2775 102.736 55.1867C101.727 55.7123 100.935 56.0374 101.126 55.4335C101.014 55.4507 100.898 55.4696 100.788 55.4863C100.795 55.5089 100.802 55.532 100.81 55.5541C100.675 55.5541 100.54 55.5542 100.406 55.5541C100.308 55.6542 100.158 55.6366 100.001 55.605C99.0383 55.7474 97.9703 55.8993 96.1165 56.1571C95.3051 56.2699 94.4925 56.3824 93.6809 56.4944C93.7546 56.5472 93.8272 56.6018 93.8997 56.6565C93.9589 56.6565 94.0182 56.6564 94.0774 56.6565C94.0559 56.647 94.033 56.6412 94.009 56.6357C94.105 56.6477 94.1774 56.6532 94.2414 56.6565C94.3201 56.6566 94.399 56.6564 94.4777 56.6565C94.6148 56.6566 94.8672 56.5274 94.8898 56.6584C94.9239 56.8549 94.8857 57.0502 94.8332 57.2464C94.8841 57.4372 94.9187 57.628 94.8859 57.8192C94.8659 57.9378 94.6547 57.8389 94.5148 57.8212C94.3847 57.8221 94.2514 57.8241 94.1144 57.8172C93.7427 57.8168 93.371 57.8172 92.9992 57.8172C92.6399 57.8172 92.2804 57.8191 91.9211 57.8191C92.2715 57.8867 92.6097 57.973 92.9328 58.1244C93.117 58.1492 93.3015 58.1737 93.4855 58.1997C94.7766 58.3503 94.6673 58.3358 96.007 58.5012C96.2474 58.5311 96.4915 58.5502 96.7296 58.5935C96.9189 58.6278 97.1076 58.6705 97.2882 58.7349C97.3983 58.7741 97.5958 58.7856 97.5949 58.8988C97.5919 59.267 97.3823 59.6078 97.2765 59.9617C97.1555 59.9558 97.0341 59.9522 96.9132 59.9427C96.7757 59.9318 96.6404 59.9077 96.5031 59.8937C96.1973 59.8627 95.891 59.8327 95.5851 59.8033C94.0506 59.6526 94.6004 59.7129 93.1769 59.5225C93.1749 59.5234 93.169 59.5272 93.1671 59.5283C93.0571 59.559 92.9481 59.5936 92.837 59.6207C92.8321 59.6216 92.8249 59.6265 92.8174 59.6283C92.8132 59.7036 92.803 59.7171 92.7763 59.6323C92.72 59.6466 92.4006 59.4005 92.5517 59.621C91.9511 59.623 91.3493 59.6356 90.749 59.6152C90.6914 59.6112 90.6348 59.6017 90.5771 59.6021C90.4899 59.6024 90.4021 59.6178 90.3153 59.6097C90.0156 59.5816 89.7527 59.4551 89.4735 59.3591C89.2997 59.2676 89.1425 59.3263 88.9501 59.295C88.8699 59.2819 88.7923 59.2581 88.7138 59.2385C88.7028 59.2934 88.6881 59.3336 88.6786 59.4043C88.754 59.9359 88.9036 59.9702 88.6454 59.9715C88.6454 59.9774 88.6321 59.9715 88.6257 59.9715C88.6113 59.9715 88.597 59.9715 88.5827 59.9715C88.5476 59.9715 88.5123 59.9716 88.4772 59.9715C88.3904 59.9715 88.3043 59.9716 88.2174 59.9715C88.1221 59.9715 88.0257 59.9716 87.9303 59.9715C87.8074 59.9712 87.686 59.9744 87.5631 59.9715C87.5344 59.9706 87.3336 59.9696 87.3268 59.9602C87.3226 59.9555 87.3449 59.9573 87.3446 59.9507C87.3385 59.8869 87.3317 59.8223 87.3249 59.7585C87.2901 59.7815 87.2599 59.8072 87.2253 59.8301L87.153 60.4614C86.8813 60.4225 86.605 60.4148 86.3308 60.4199C86.2535 60.4218 86.1775 60.436 86.1003 60.433C85.9437 60.4272 85.7861 60.4166 85.6296 60.4086C85.247 60.3751 85.2885 60.382 84.8835 60.3313C84.7818 60.3186 84.6958 60.3091 84.6257 60.2974C84.6166 60.308 84.6075 60.3171 84.5985 60.3277C84.5686 60.3609 84.5064 60.3335 84.4618 60.3237C84.2568 60.2812 84.2455 60.2754 84.1747 60.2596H84.0282H83.7548H83.2274H82.745H82.5653H82.2177C82.1469 60.2596 82.0698 60.2597 82.0048 60.2596C81.8058 60.2596 81.6081 60.2602 81.4091 60.2596C81.3123 60.2589 81.2529 60.2597 81.1396 60.2654C81.1093 60.2653 81.0782 60.266 81.0477 60.2654C80.8929 60.3245 80.7032 60.3219 80.5399 60.32H79.8642H79.4188C79.3138 60.3201 79.2094 60.3201 79.1044 60.32C78.9716 60.32 78.8388 60.32 78.7059 60.32C78.6389 60.3199 78.4978 60.3295 78.4384 60.3181C78.4444 60.3162 78.458 60.3104 78.4637 60.3086C78.4376 60.3086 78.4112 60.3145 78.3856 60.3181C78.1946 60.3269 78.0045 60.3039 77.8133 60.3104C77.8143 60.2074 77.8143 60.1047 77.8092 60.0014C77.7789 60.1181 77.7455 60.2338 77.7076 60.3481C77.6944 60.3876 77.6214 60.3434 77.5787 60.3386C77.4478 60.3226 77.1867 60.2693 77.0767 60.2482L77.1451 59.9109H77.0651V59.0364C76.9791 59.0367 76.8932 59.0383 76.8073 59.0404C76.7111 59.0411 76.6181 59.0396 76.5221 59.0309C76.1355 59.0444 75.7489 59.0674 75.3639 59.0065L75.4733 57.8494C75.8078 57.907 76.1415 57.8844 76.4772 57.872C76.5859 57.874 76.6907 57.879 76.7994 57.8779C76.9599 57.8769 77.1214 57.8777 77.2819 57.8779C77.2839 57.8781 77.3807 57.8775 77.3776 57.8779C77.1042 57.9056 77.2961 57.826 76.9752 58.136C76.9265 58.9288 76.8911 58.372 77.5299 57.7422C77.5424 57.7298 77.6292 57.7403 77.7096 57.7498C77.819 57.6992 78.0031 57.685 78.194 57.6858C78.3301 57.6864 78.4384 57.6965 78.5553 57.7027C78.5224 57.5742 78.5829 57.3839 78.7897 57.0337C78.6823 57.0384 78.5996 57.0194 78.5963 56.93C78.5943 56.8763 78.5962 56.8299 78.5963 56.7811C78.4915 56.5973 78.5089 56.2944 78.733 55.7748C78.8196 55.5741 79.1816 55.8188 79.4049 55.8484C79.8531 55.9077 80.2354 55.9595 80.6139 56.0123C80.6138 55.9331 80.618 55.8434 80.6275 55.7466C80.0487 55.7061 79.4699 55.6705 78.8912 55.6298C78.3749 55.7719 77.8563 55.9065 77.3326 56.0199C76.9421 56.1044 76.5239 56.2287 76.1373 56.1291C75.9636 56.0845 75.7878 56.0315 75.6158 55.969C75.4526 56 75.3648 56.0158 75.1744 56.0519C75.276 56.0063 75.3774 55.9618 75.4791 55.9162C75.1028 55.7655 74.7488 55.5638 74.4752 55.2849C74.3362 55.1433 74.788 55.0359 74.9439 54.9118C75.4003 54.8255 75.6857 54.7717 76.0084 54.7101C76.0454 54.6232 76.0884 54.5393 76.1392 54.4595C76.132 54.3539 76.132 54.2474 76.1412 54.1448C76.1484 54.0626 76.2593 54.1204 76.3678 54.1732C76.3822 54.159 76.3958 54.1437 76.4108 54.1299C76.4169 54.1241 77.6366 54.2204 77.6842 54.2242C78.3981 54.2805 78.027 54.2665 78.737 54.2563C79.0691 54.2119 79.577 54.1496 80.0553 54.0904C84.4742 52.7985 80.137 53.892 84.8424 52.7751C84.9562 52.7214 85.0969 52.6968 85.2467 52.6809C85.3276 52.6615 85.3624 52.6542 85.4479 52.6337C86.138 52.5002 86.6036 52.4013 87.0475 52.3209C87.171 52.019 87.3193 51.7257 87.4967 51.4522C87.7652 51.0384 88.1712 50.8922 88.6139 50.8303C88.623 50.8259 88.6324 50.823 88.6411 50.819C88.6401 50.8214 88.6403 50.8241 88.6391 50.8267C88.6509 50.8251 88.6626 50.823 88.6743 50.823C88.6841 50.8106 88.6902 50.8011 88.6996 50.7891C88.6803 50.7982 88.6603 50.8099 88.6411 50.819C88.7013 50.657 88.7783 50.5008 88.8872 50.3634C88.9571 50.2751 89.0913 50.1831 89.2485 50.0977C89.1025 50.2682 88.9225 50.5008 88.6996 50.7891C88.8789 50.7047 89.059 50.6231 89.2368 50.5368C89.3142 50.4168 89.3321 50.3887 89.4614 50.1863C89.5173 50.1698 89.5734 50.1549 89.6294 50.1391C89.5264 50.2457 89.4237 50.3675 89.3266 50.4878C89.6051 50.3489 89.873 50.1965 90.1079 50.0034C89.9499 50.0472 89.7929 50.0924 89.6352 50.1372C89.7113 50.0587 89.7844 49.989 89.852 49.9394C89.9696 49.8532 90.1069 49.7973 90.2505 49.7566C90.0832 49.7464 89.6044 49.9044 89.2485 50.0977C89.7609 49.5005 89.95 49.5354 90.8247 49.5813C90.9533 49.6039 91.0809 49.6267 91.2094 49.6492C91.0608 49.6408 90.9093 49.6163 90.7641 49.6472C90.5963 49.683 90.4177 49.7095 90.2505 49.7566C90.3189 49.762 90.3326 49.7984 90.2585 49.8733C90.2104 49.9199 90.1615 49.9648 90.11 50.0071C90.4655 49.9086 90.8202 49.8078 91.1745 49.7056C90.8738 49.8767 90.58 50.0593 90.3307 50.2917C90.2381 50.378 90.1833 50.4907 90.1393 50.6102C89.9308 50.5981 89.4816 50.6138 89.2819 50.6007C89.2566 50.6124 89.2396 50.6182 89.2155 50.6291C89.1688 50.6893 89.1315 50.7377 89.0944 50.7874C89.4482 50.7685 89.8033 50.759 90.1159 50.68C90.1238 50.6574 90.1314 50.6327 90.1393 50.6102C90.2491 50.6164 90.2978 50.6308 90.196 50.6612C90.1699 50.6688 90.1426 50.6731 90.1159 50.68C90.0834 50.7758 90.0529 50.8755 90.0104 50.9646C90.076 51.1823 90.1626 51.3963 90.2468 51.611C90.2725 51.6055 90.3666 51.5866 90.3952 51.5807C90.6551 51.1462 90.9708 50.7395 91.2917 50.3351C91.1533 50.7495 91.0431 51.1858 91.0182 51.4545C91.1239 51.4333 91.2868 51.3998 91.4088 51.3753C91.7296 51.0006 91.9896 50.6708 92.1667 50.403C92.082 50.4274 91.9973 50.4529 91.9128 50.4764C91.8341 50.4983 92.0016 49.5534 92.1998 49.4061C92.3139 49.3214 92.4317 49.2418 92.5514 49.1648C92.6314 49.311 92.6231 49.5638 92.4108 49.9827C92.718 49.8316 93.0352 49.6989 93.3658 49.6058C93.4522 49.5817 93.5387 49.5616 93.6276 49.5474C93.693 49.5368 93.7668 49.5594 93.8268 49.5324C93.8491 49.5222 93.7943 49.4974 93.778 49.4797C93.9741 49.3465 94.1772 49.2445 94.4186 49.2253C94.4206 49.2242 94.4228 49.2241 94.4247 49.2233C94.471 49.204 94.5184 49.1847 94.5653 49.1668C94.5956 49.1552 94.6809 49.111 94.6571 49.1329C94.6143 49.1724 94.5525 49.1985 94.4969 49.2271C94.506 49.2282 94.5151 49.2304 94.5242 49.2308C94.5302 49.231 94.5374 49.2303 94.5438 49.2308C94.5684 49.2328 94.6265 49.2468 94.6415 49.2516C94.6023 49.2481 94.5629 49.2381 94.5242 49.2308C94.5124 49.2304 94.5009 49.2306 94.4892 49.2308C94.4384 49.2578 94.3931 49.2873 94.3779 49.3382C94.3578 49.4056 94.334 49.5103 94.3173 49.6171C94.4528 49.5534 94.5863 49.4871 94.7177 49.4173C94.7536 49.2863 94.7887 49.1546 94.8427 49.0385C95.0617 49.0528 95.0852 49.042 95.2275 49.1196C95.4779 48.9614 95.7207 48.793 95.9462 48.6032C96.2742 48.3272 95.1905 48.0269 94.7587 48.0793C94.1496 48.1533 93.6134 48.4755 93.0654 48.7634C93.1493 48.7422 93.2298 48.7215 93.3271 48.6956C93.4197 48.6405 93.5132 48.5848 93.6044 48.5279C93.7322 48.5228 94.1098 48.4753 93.9872 48.5129C93.7334 48.5862 93.5222 48.6436 93.3271 48.6956C93.0677 48.8497 92.8045 49.0021 92.5514 49.1648C92.4988 49.0708 92.4134 49.0165 92.3271 48.9897C92.2976 49.0036 92.2686 49.0185 92.2392 49.033C92.2505 49.0148 92.2615 48.9966 92.2724 48.9784C92.2327 48.97 92.1958 48.9663 92.1631 48.9652C92.1956 48.9609 92.2425 48.9517 92.2939 48.9426C92.2959 48.9394 92.298 48.9346 92.2999 48.9313C92.3196 48.8974 92.1235 48.9375 91.9933 48.9671C92.0661 48.9499 92.1612 48.9261 92.3957 48.8672C92.6158 48.8149 92.6345 48.8112 92.7296 48.788C93.201 48.2211 93.8997 47.5022 94.5148 47.3314C94.8499 47.2383 95.1937 47.1755 95.5363 47.1109C95.5983 47.0952 95.7081 47.0755 95.8038 47.0562C95.8048 47.0559 95.8068 47.0548 95.808 47.0543C95.8159 47.0527 95.822 47.0519 95.8295 47.0506C95.9457 47.0269 96.0433 47.0043 96.1635 46.9809C96.0722 46.962 95.9804 46.9435 95.8882 46.93C95.8061 46.9446 95.7191 46.9548 95.6558 46.9621L95.1108 45.9313C95.328 45.8385 95.2085 45.8813 95.4761 45.8145C95.5055 45.8112 95.5344 45.8014 95.564 45.805C95.5719 45.8061 95.5443 45.8247 95.5523 45.824C95.6564 45.8105 95.756 45.7729 95.8609 45.7656C96.1567 45.7451 96.5222 45.9041 96.812 45.9107C97.1433 45.9626 97.475 46.0234 97.8081 46.0633C98.2789 46.1196 98.1252 46.0958 98.3589 46.1085C98.4396 46.0947 98.5213 46.0855 98.5991 46.0709C98.7723 46.0384 98.9429 45.9945 99.1167 45.9653C99.1893 45.9258 99.2565 45.8936 99.3003 45.8824C99.422 45.8514 99.5067 45.8403 99.5874 45.8372C99.6681 45.8341 99.7454 45.8364 99.855 45.843C99.9788 45.8561 99.9939 45.8587 100.021 45.8638L100.015 45.8619C100.032 45.8575 100.228 45.8564 100.23 45.856C100.665 45.8608 101.101 45.8583 101.536 45.858C101.801 45.8577 101.7 45.858 102.06 45.858C102.149 45.858 102.239 45.8489 102.327 45.858C102.524 45.8777 102.696 45.916 102.87 45.9692C102.955 45.9546 103.063 45.9705 103.142 45.9768C103.437 45.9651 103.73 46.0031 104.023 46.0371C104.348 46.1014 104.657 46.1573 104.976 46.2388C105.031 46.253 105.085 46.2657 105.14 46.2821C105.381 46.2413 105.625 46.2591 105.87 46.2631C106.081 46.2668 106.331 46.2671 106.544 46.2689C106.936 46.2733 107.328 46.2606 107.72 46.2653C107.867 46.2656 108.013 46.2653 108.16 46.2653C108.303 46.2547 108.405 46.281 108.501 46.3237C108.603 46.3242 108.698 46.3514 108.792 46.3878C108.984 46.371 109.175 46.3819 109.367 46.3819L109.247 45.696C109.557 45.6488 109.873 45.5812 110.189 45.5999C110.203 45.6007 110.216 45.6028 110.23 45.6036L110.224 45.5451C110.807 45.4706 111.394 45.5123 111.98 45.5167C111.87 45.7251 112.037 45.6502 112.206 45.5714C112.21 45.5228 112.246 45.5137 112.341 45.513C112.344 45.5118 112.346 45.5098 112.349 45.5093C112.352 45.4987 112.368 45.494 112.386 45.4944C112.387 45.494 112.389 45.4947 112.39 45.4944C112.407 45.4892 112.422 45.4863 112.435 45.4849L112.434 45.4758ZM162.591 57.4272C162.584 57.4267 162.576 57.4261 162.568 57.4251C162.557 57.427 162.551 57.4271 162.541 57.4291C162.551 57.4561 162.561 57.4829 162.571 57.5102C162.609 57.516 162.644 57.5211 162.69 57.5291C162.659 57.497 162.627 57.4655 162.591 57.4272ZM162.69 57.5291C162.855 57.7019 162.941 57.7926 162.965 57.8171C162.93 57.7783 162.825 57.6591 162.724 57.5349C162.713 57.533 162.7 57.5309 162.69 57.5291ZM114.244 45.5776C114.229 45.5782 114.214 45.5802 114.197 45.5812C114.25 45.6381 114.348 45.7367 114.629 45.911C114.635 45.911 114.64 45.911 114.647 45.911C114.643 45.8935 114.621 45.8535 114.606 45.8394C114.507 45.7477 114.393 45.672 114.287 45.5887C114.297 45.5778 114.274 45.5765 114.244 45.5776ZM117.559 45.7961V46.3803C117.587 46.3822 117.613 46.3829 117.643 46.3862C117.659 46.2212 117.658 46.052 117.682 45.8887C117.611 45.8266 117.581 45.8036 117.559 45.7961ZM131.52 45.8941C131.542 45.9069 131.564 45.9207 131.588 45.9318C131.585 45.9267 131.569 45.9099 131.561 45.9074C131.547 45.903 131.533 45.8981 131.52 45.8941ZM108.635 46.3822C108.661 46.3964 108.686 46.4103 108.715 46.4256C108.735 46.4361 108.68 46.3968 108.658 46.3898C108.646 46.3858 108.646 46.3858 108.635 46.3822ZM108.871 46.4125C108.889 46.4198 108.906 46.4278 108.924 46.4351C108.933 46.4391 108.908 46.4227 108.899 46.4201C108.874 46.4143 108.885 46.4157 108.871 46.4125ZM103.408 46.4427C103.336 46.4467 103.209 46.5288 103.004 46.7348C103.083 46.748 103.289 46.7723 103.432 46.7914C103.499 46.6349 103.53 46.4362 103.408 46.4427ZM116.236 46.8667C116.253 46.8689 116.29 46.874 116.029 46.8893C115.975 46.8925 115.918 46.8762 115.865 46.8893C115.859 46.8908 115.855 46.8948 115.85 46.897C115.975 46.8978 116.101 46.8973 116.227 46.897C116.23 46.8872 116.234 46.8769 116.236 46.8667ZM128.488 46.8839C128.489 46.8882 128.491 46.8926 128.493 46.897H128.497C128.495 46.8926 128.491 46.8882 128.488 46.8839ZM95.6558 46.9621C95.6064 46.9756 95.6079 46.9921 95.6095 46.9667C95.6186 46.9658 95.6437 46.964 95.6558 46.9621ZM98.4376 47.2702C98.4024 47.2757 98.3673 47.2815 98.3321 47.2873C98.616 47.3493 98.9064 47.4349 99.2305 47.5342C99.3195 47.5539 99.4078 47.5772 99.4962 47.6002C99.5423 47.6007 99.586 47.5988 99.6329 47.6002C100.376 47.6224 101.122 47.652 101.869 47.6925C101.891 47.6919 101.912 47.6913 101.934 47.6906C101.825 47.6673 101.717 47.642 101.607 47.6246C100.699 47.4804 100.04 47.4226 99.1524 47.3307C98.9142 47.3106 98.6759 47.2888 98.4376 47.2702ZM143.611 47.5943C143.623 47.6002 143.634 47.6078 143.647 47.6133C143.654 47.6166 143.637 47.5976 143.629 47.5961C143.623 47.5953 143.618 47.5951 143.611 47.5943ZM98.2227 47.6093C98.2631 47.6348 98.3123 47.6643 98.3536 47.6903C98.3642 47.6884 98.3744 47.6901 98.3849 47.6845C98.3717 47.6761 98.3562 47.66 98.3458 47.656C98.2984 47.6374 98.267 47.6265 98.2227 47.6093ZM112.342 47.8863C112.249 47.8917 112.172 47.888 112.098 47.8921L112.049 47.9505C112.157 47.9589 112.265 47.9658 112.373 47.9713C112.39 47.9451 112.406 47.9192 112.42 47.894C112.394 47.8916 112.368 47.8888 112.342 47.8863ZM112.582 47.9089C112.567 47.9326 112.55 47.9564 112.529 47.9805C112.733 47.9885 112.937 47.9929 113.141 47.9954C113.093 47.982 113.067 47.9699 112.836 47.9314C112.797 47.9252 112.915 47.9482 112.949 47.9671C112.981 47.9846 112.881 47.9427 112.846 47.9369C112.766 47.9237 112.683 47.9186 112.602 47.9106C112.595 47.91 112.589 47.9096 112.582 47.9089ZM118.731 48.0596C118.735 48.2558 118.741 48.453 118.74 48.6495C118.748 48.6493 118.756 48.6477 118.764 48.6475C118.813 48.4093 118.864 48.172 118.826 48.0596L118.731 48.0596ZM140.91 48.3574C140.917 48.398 140.923 48.437 140.934 48.4931C140.943 48.4566 140.957 48.4034 140.967 48.363C140.948 48.3611 140.929 48.3617 140.91 48.3574ZM108.467 48.5647C108.534 48.5884 108.6 48.6085 108.668 48.6344C108.701 48.6362 108.733 48.6366 108.766 48.6439C108.828 48.6439 108.891 48.6439 108.953 48.6439C108.753 48.6081 108.616 48.5877 108.467 48.5647ZM92.6895 48.8304C92.6555 48.8435 92.6173 48.8588 92.5801 48.8737C92.6119 48.8667 92.6328 48.8627 92.6681 48.8547C92.6752 48.846 92.6823 48.8391 92.6895 48.8304ZM92.2364 49.0282C92.1574 49.1577 92.0738 49.2838 91.9864 49.4089C92.0405 49.4151 92.082 49.4227 92.0489 49.4333C92.0153 49.4443 91.9812 49.4545 91.9473 49.4654C91.74 49.7572 91.517 50.0405 91.293 50.3228C91.3883 50.0386 91.4926 49.7677 91.5938 49.5747C91.502 49.6024 91.4105 49.6307 91.3184 49.6576C91.3664 49.6671 91.4047 49.6777 91.3751 49.6726C91.3528 49.6689 91.3309 49.6653 91.3087 49.6613C91.2645 49.674 91.22 49.6861 91.1758 49.6989C91.2031 49.6836 91.2288 49.6669 91.2559 49.6518C91.2446 49.6499 91.234 49.6467 91.2227 49.6442C91.2306 49.6446 91.2472 49.6482 91.2597 49.65C91.3859 49.5792 91.5116 49.508 91.6367 49.4371C91.6526 49.428 91.6696 49.421 91.6875 49.4145C91.8015 49.2701 92.0157 49.1379 92.2364 49.0282ZM94.3048 49.9177C94.3138 49.9645 94.3312 49.9948 94.3634 49.9912C94.3441 49.9631 94.3245 49.9422 94.3048 49.9177ZM92.1739 50.3831C92.1709 50.3879 92.169 50.3912 92.166 50.3963C92.1709 50.3949 92.175 50.3926 92.1796 50.3926L92.1739 50.3831ZM94.5137 50.3963C94.4588 50.4291 94.4045 50.4632 94.3497 50.4962C94.3081 50.5115 94.2664 50.5264 94.2247 50.5414C94.2424 50.626 94.2572 50.7114 94.2774 50.7958C94.2898 50.7933 94.2921 50.7952 94.3046 50.7899C94.3755 50.6771 94.4448 50.5637 94.5058 50.4451C94.513 50.4316 94.5107 50.4128 94.5137 50.3963ZM89.1602 50.6469C88.9984 50.7178 88.8644 50.7692 88.7618 50.8052C88.8644 50.795 88.968 50.7884 89.0724 50.7826C89.0897 50.756 89.1362 50.684 89.1602 50.6469ZM153.85 50.7317C153.849 50.7569 153.848 50.782 153.848 50.8071C153.851 50.8084 153.853 50.8106 153.856 50.8107C153.856 50.7837 153.857 50.7564 153.85 50.7317ZM88.6524 50.8429C88.6433 50.8457 88.6354 50.8476 88.6271 50.8505C88.6222 50.8662 88.6165 50.8819 88.6116 50.8977C88.6278 50.8769 88.6367 50.8633 88.6524 50.8429ZM88.4415 50.9051C88.3644 50.9273 88.3202 50.9497 88.2735 50.9974C88.3297 50.9671 88.3841 50.9338 88.4415 50.9051ZM151.141 51.003C150.813 51.0574 150.461 51.1171 150.047 51.1858C149.859 51.2485 149.672 51.3116 149.484 51.3743C149.494 51.3779 149.503 51.3805 149.512 51.3838C149.913 51.2684 150.514 51.135 151.141 51.003ZM88.127 51.1953C88.0797 51.2713 88.0298 51.3862 87.9805 51.5156C87.9987 51.5087 88.0238 51.5003 88.043 51.493C88.0706 51.3933 88.098 51.2944 88.127 51.1953ZM88.043 51.493C87.9812 51.7156 87.9141 51.9369 87.8223 52.1488C87.8601 52.1397 87.8979 52.1317 87.9356 52.1225C87.9436 51.9205 87.9727 51.715 88.0509 51.6156C88.1028 51.5498 88.1373 51.5041 88.1856 51.4423C88.135 51.4598 88.0868 51.4768 88.043 51.493ZM87.9805 51.5156C87.5025 51.7017 87.4223 51.8549 87.1075 52.3014C87.2036 52.2843 87.3089 52.2612 87.4044 52.2468C87.5303 52.2161 87.6572 52.1888 87.7833 52.1582C87.809 52.0296 87.887 51.7612 87.9805 51.5156ZM88.8751 51.2631C88.8052 51.2603 88.737 51.265 88.67 51.2857C88.6046 51.3061 88.5562 51.3218 88.4981 51.3404C88.4493 51.5708 88.4059 51.8043 88.3419 52.0282C88.5384 51.9814 88.7348 51.9341 88.9317 51.8887L89.088 51.2876C89.0166 51.2763 88.9449 51.266 88.8751 51.2631ZM103.496 52.4786C103.493 52.4866 103.489 52.495 103.486 52.503C103.5 52.5285 103.513 52.5539 103.523 52.5803C103.543 52.5791 103.564 52.5766 103.584 52.5766C103.592 52.5504 103.6 52.5237 103.607 52.4937C103.568 52.489 103.535 52.4829 103.496 52.4786ZM102.285 53.5866C102.183 53.5925 102.081 53.6183 101.979 53.6205C101.784 53.6249 101.591 53.6111 101.397 53.6111C101.367 53.611 101.338 53.611 101.309 53.6111C101.28 53.6154 101.251 53.6198 101.223 53.6242C101.259 53.6904 101.3 53.7621 101.348 53.839C101.572 53.8383 101.579 53.8399 101.836 53.839C101.846 53.8262 101.855 53.8153 101.865 53.8051C101.914 53.7545 101.963 53.7376 102.012 53.773C102.032 53.772 102.051 53.7694 102.071 53.7694C101.968 53.6697 101.886 53.6652 101.733 53.6996C101.799 53.6876 101.865 53.6679 101.932 53.6639C102.065 53.6559 102.223 53.6562 102.369 53.6923C102.433 53.6712 102.497 53.6496 102.561 53.6283C102.52 53.6129 102.465 53.5998 102.387 53.5906C102.353 53.5866 102.319 53.5844 102.285 53.5866ZM102.012 53.773C101.949 53.7762 101.891 53.781 101.865 53.8051C101.856 53.8135 101.851 53.8253 101.852 53.8392C101.97 53.8388 101.95 53.8388 102.076 53.8373C102.06 53.8201 102.047 53.8023 102.029 53.7845C102.024 53.779 102.018 53.777 102.012 53.773ZM101.852 53.8392C101.844 53.8392 101.844 53.839 101.836 53.839C101.83 53.8478 101.822 53.8581 101.816 53.8676C101.83 53.8666 101.844 53.8647 101.857 53.8636C101.856 53.8596 101.854 53.8548 101.853 53.8505C101.852 53.8457 101.852 53.8428 101.852 53.8392ZM101.857 53.8636C101.858 53.8655 101.858 53.8683 101.86 53.8712C101.885 53.8713 101.91 53.8712 101.936 53.8712C101.952 53.8713 102.074 53.8711 102.108 53.8712C102.1 53.8625 102.091 53.8523 102.082 53.8428C102.007 53.8497 101.932 53.8563 101.857 53.8636ZM101.86 53.8712C101.845 53.8712 101.83 53.8713 101.815 53.8712C101.784 53.9182 101.755 53.9744 101.731 54.0352L101.905 54.041C101.889 53.9838 101.873 53.9248 101.86 53.8712ZM101.815 53.8712C101.815 53.8703 101.815 53.8687 101.816 53.8676C101.804 53.8686 101.791 53.8701 101.778 53.8712C101.79 53.8713 101.802 53.8712 101.815 53.8712ZM133.965 53.7393C133.763 53.7554 133.56 53.7733 133.358 53.7884C132.843 53.8265 132.325 53.8048 131.809 53.811C131.248 53.8679 130.687 53.9261 130.125 53.9787C129.932 53.9969 129.736 53.9969 129.541 53.9976C129.762 54.0616 129.907 54.1032 130.155 54.1748C131.657 54.2793 132.872 55.2873 134.303 55.6032C134.408 55.6265 134.517 55.6309 134.625 55.6294C134.626 55.5278 134.63 55.4262 134.639 55.3241C134.64 55.3088 134.646 55.2971 134.649 55.2826C134.637 55.2833 134.606 55.2855 134.594 55.2866C134.465 55.3403 134.35 55.3717 134.303 55.2695C134.267 55.1925 134.256 55.1121 134.256 55.0302C134.14 54.7258 133.984 54.4184 134.088 54.1275C134.168 53.9056 134.566 54.0345 134.807 54.0031C135.358 53.9319 135.911 53.8805 136.463 53.8185C135.948 53.8035 135.433 53.7677 134.918 53.7581C134.327 53.7472 134.309 53.7463 133.965 53.7393ZM103.092 53.7714C102.933 53.7816 102.774 53.7922 102.616 53.8035C102.643 53.8239 102.669 53.8471 102.692 53.8732C102.924 53.874 103.027 53.8736 103.272 53.8752C103.211 53.8398 103.152 53.806 103.092 53.7714ZM102.147 53.8581C102.143 53.8629 102.139 53.8669 102.135 53.8712C102.139 53.8713 102.149 53.8712 102.153 53.8712C102.149 53.8618 102.154 53.8693 102.147 53.8581ZM102.123 53.8884C102.08 53.9436 102.043 53.9925 102.002 54.0448L102.032 54.0467C102.096 54.038 102.152 54.0303 102.217 54.0223C102.214 54.0154 102.203 53.9909 102.202 53.9865C102.178 53.9548 102.152 53.9217 102.123 53.8884ZM104.043 54.3199C104.039 54.3219 104.035 54.3239 104.032 54.3257C104.015 54.3888 103.992 54.4548 103.967 54.5217C104.042 54.4815 104.114 54.4441 104.188 54.4049C104.14 54.3775 104.092 54.348 104.043 54.3199ZM139.475 54.955C139.444 54.959 139.412 54.9645 139.381 54.9681C139.417 54.9977 139.454 55.0277 139.489 55.0567C139.494 55.052 139.498 55.0458 139.502 55.0396C139.486 55.0228 139.47 55.0031 139.453 54.9868C139.461 54.9766 139.467 54.9656 139.475 54.955ZM137.065 55.1435C137.003 55.1475 136.94 55.1504 136.873 55.1548C136.862 55.1595 136.849 55.1653 136.838 55.1697C136.844 55.1705 136.854 55.1737 136.86 55.1737C137.654 55.204 137.102 55.1747 137.065 55.1718C137.065 55.1616 137.065 55.1529 137.065 55.1435ZM136.838 55.1697C136.826 55.1678 136.809 55.1609 136.795 55.1584C136.706 55.1642 136.639 55.1679 136.545 55.1734C136.596 55.1901 136.647 55.2065 136.698 55.2242C136.744 55.2056 136.787 55.1915 136.838 55.1697ZM136.459 55.1774C136.142 55.196 135.938 55.2102 135.629 55.2264C135.285 55.9159 134.978 56.6882 134.854 57.1165C134.718 56.643 134.631 56.1637 134.627 55.6805C133.81 56.0808 134.426 56.7643 134.155 58.9632C134.247 59.0183 135.935 60.2548 136.575 59.8113C136.237 59.8072 135.922 59.797 135.908 59.766C135.573 58.9739 135.181 58.1604 134.918 57.3313C134.906 57.3481 134.898 57.3597 134.885 57.3765C134.769 57.5304 134.774 57.3998 134.854 57.1165C134.874 57.1879 134.896 57.2602 134.918 57.3313C135.758 56.217 136.054 55.6662 136.115 55.4186C135.563 55.5205 136.228 54.9619 136.115 55.4186C136.2 55.4029 136.313 55.3709 136.461 55.3187C136.46 55.2714 136.459 55.2244 136.459 55.1774ZM135.321 55.46C135.083 55.5132 134.895 55.5681 134.744 55.6277C134.889 55.6179 135.032 55.5949 135.174 55.575C135.236 55.5662 135.382 55.4465 135.321 55.46ZM156.469 55.5316C156.411 55.5765 156.365 55.6131 156.309 55.656C156.31 55.6579 156.309 55.6607 156.309 55.6636C156.363 55.6202 156.417 55.5773 156.469 55.5316ZM160.686 56.1968C160.333 56.3068 160.498 56.2524 160.686 56.1968V56.1968ZM93.9202 56.6151C93.9452 56.6239 93.9718 56.6297 93.9983 56.6359C93.9892 56.6351 93.9832 56.634 93.9711 56.6319C93.9533 56.63 93.9032 56.61 93.9202 56.6151ZM160.225 56.9713C160.194 56.9717 160.164 56.9732 160.133 56.9732C160.164 57.0002 160.201 57.0295 160.237 57.058C160.245 57.0493 160.254 57.0405 160.262 57.0318C160.25 57.011 160.237 56.993 160.225 56.9713ZM160.483 56.9939C160.456 57.0117 160.429 57.0296 160.401 57.0467C160.414 57.0601 160.428 57.0725 160.442 57.0862C160.457 57.0843 160.466 57.0793 160.481 57.0767C160.503 57.0527 160.525 57.0278 160.547 57.0032C160.526 56.9985 160.504 56.9975 160.483 56.9939ZM162.198 57.0034C162.205 57.0418 162.212 57.0927 162.219 57.1485C162.225 57.1465 162.23 57.1465 162.237 57.1445C162.233 57.0822 162.232 57.0899 162.227 57.0163C162.217 57.0116 162.208 57.0077 162.198 57.0034ZM162.233 57.1975C162.236 57.2004 162.238 57.2044 162.241 57.207C162.24 57.2029 162.241 57.2022 162.241 57.1975C162.239 57.1974 162.236 57.1974 162.233 57.1975ZM141.75 57.8062C141.717 57.8204 141.674 57.8382 141.643 57.8514C141.675 57.8467 141.715 57.8346 141.766 57.8137C141.761 57.8108 141.755 57.8091 141.75 57.8062ZM162.967 57.9249L162.823 58.0474C162.841 58.0678 162.858 58.0879 162.879 58.1058C162.95 58.1646 162.964 58.0578 162.967 57.9249ZM163.741 58.0285C163.78 58.0672 163.822 58.1047 163.864 58.1416C163.889 58.1646 163.827 58.0832 163.799 58.0625C163.781 58.049 163.761 58.0384 163.741 58.0285ZM139.006 58.7842C138.779 58.9591 138.531 59.1112 138.28 59.261C138.514 59.203 138.728 59.1283 138.83 59.0216C138.9 58.9494 138.958 58.8695 139.006 58.7842ZM79.594 58.9161C79.6325 58.989 79.6538 59.0715 79.6721 59.1554H79.7893C79.7583 59.0864 79.7256 59.0205 79.6975 58.9802C79.6729 58.9452 79.6364 58.9276 79.594 58.9161ZM86.9358 59.0744C86.8591 59.1339 86.7831 59.1944 86.719 59.261C86.8037 59.2639 86.8884 59.2657 86.9729 59.2723C86.9699 59.2087 86.968 59.1454 86.9669 59.082C86.9563 59.0791 86.9464 59.0773 86.9358 59.0744ZM168.139 59.276C168.072 59.2837 168.008 59.3059 167.946 59.3306H168.069C168.145 59.2967 168.195 59.2691 168.139 59.276ZM155.619 59.374C155.608 59.3769 155.859 59.491 155.948 59.5361C156.009 59.5463 156.041 59.5536 156.096 59.5645C155.946 59.4995 155.797 59.432 155.643 59.3799C155.629 59.3751 155.621 59.374 155.619 59.374ZM168.364 59.4626C168.354 59.4655 168.347 59.4695 168.338 59.4721C168.31 59.506 168.219 59.603 168.252 59.5739C168.292 59.5392 168.328 59.5006 168.364 59.4626ZM92.7307 59.4666C92.7421 59.5167 92.7538 59.5659 92.7699 59.6211C92.7709 59.6251 92.7752 59.6287 92.7763 59.6323C92.7813 59.6304 92.782 59.6259 92.782 59.6193C92.7823 59.5996 92.7817 59.5857 92.782 59.5665C92.779 59.5312 92.779 59.5062 92.7759 59.4722C92.7631 59.4703 92.7439 59.4684 92.7307 59.4666ZM92.782 59.5665C92.784 59.5869 92.7835 59.6 92.7857 59.6211C92.7865 59.6316 92.8022 59.632 92.8174 59.6283C92.8194 59.5914 92.8182 59.5416 92.8172 59.4799C92.8074 59.4789 92.7919 59.4751 92.782 59.474C92.7817 59.5065 92.7824 59.5326 92.782 59.5665ZM93.0726 59.5119C93.0435 59.5224 93.0142 59.5334 92.9867 59.5476C92.9357 59.5738 93.0551 59.5474 93.139 59.5232C93.1228 59.5212 93.0892 59.5144 93.0726 59.5119ZM96.8948 59.836C96.8943 59.8407 96.8928 59.8455 96.8928 59.851C96.8918 59.8732 96.985 59.8637 96.9631 59.8586C96.9348 59.8499 96.9202 59.844 96.8948 59.836ZM77.4964 59.9133C77.4658 60.0326 77.4353 60.1517 77.4066 60.2713C77.4036 60.2833 77.438 60.3019 77.4417 60.2903C77.4801 60.1651 77.5146 60.0396 77.5491 59.9134C77.5314 59.9134 77.5139 59.9132 77.4964 59.9133ZM168.774 60.3297C168.779 60.3306 168.781 60.3346 168.785 60.3357C168.779 60.3338 168.769 60.3286 168.774 60.3297Z" fill="white"/>
</mask>
<g mask="url(#mask2_1_101)">
<path d="M62.7914 2.73511V41.8603H193.483V2.73511H62.7914ZM36.9106 42.5387V62.9512L217.176 63.5184L216.532 43.104L36.9106 42.5387Z" stroke="#E8F9FF" stroke-width="5.66929"/>
</g>
<path d="M87.5337 97.4883C87.5337 103.223 86.2461 108.722 83.9539 112.779C81.6618 116.835 78.5526 119.116 75.3099 119.12C72.0672 119.124 68.9562 116.85 66.6609 112.8C64.3656 108.749 63.0737 103.253 63.0692 97.5181C63.0648 91.7837 64.3481 86.2807 66.6371 82.2189C68.9261 78.1571 72.0334 75.8687 75.2762 75.8569C78.5189 75.845 81.6316 78.1106 83.9301 82.1556C86.2285 86.2007 87.5247 91.6942 87.5337 97.4286L87.5337 97.4883Z" stroke="#E8F9FF" stroke-width="1.56094" stroke-linecap="round" stroke-linejoin="round"/>
<path d="M87.5336 97.4286L110.389 96.5535L118.436 103.925" stroke="#E8F9FF" stroke-width="1.27711"/>
</svg>
