<svg width="34" height="34" viewBox="0 0 34 34" fill="none" xmlns="http://www.w3.org/2000/svg">
<path d="M16.5007 11.4848L15.0573 12.9289L17.6012 15.4724L11.3455 15.4734L11.3458 17.5361L17.6016 17.535L15.0584 20.0794L16.5023 21.523L21.5199 16.5031L16.5007 11.4848ZM16.4993 2.75289C18.3783 2.75258 20.1543 3.11326 21.8272 3.83492C23.5001 4.55657 24.9611 5.54183 26.2101 6.79068C27.4592 8.03952 28.4448 9.50041 29.1669 11.1733C29.889 12.8463 30.2502 14.6224 30.2505 16.5017C30.2508 18.4039 29.8901 20.1916 29.1686 21.8647C28.447 23.5379 27.4619 24.9934 26.2133 26.2312C24.9646 27.469 23.5039 28.449 21.8313 29.1712C20.1586 29.8934 18.3827 30.2546 16.5037 30.2549C14.6018 30.2552 12.8143 29.8945 11.1414 29.1729C9.46853 28.4512 8.01327 27.4717 6.77566 26.2343C5.53806 24.9969 4.55821 23.5418 3.83611 21.8688C3.11402 20.1959 2.75282 18.4084 2.75251 16.5061C2.75221 14.6268 3.11283 12.8506 3.83438 11.1774C4.55593 9.50428 5.53531 8.04307 6.77252 6.79382C8.00972 5.54457 9.46466 4.55885 11.1373 3.83665C12.81 3.11445 14.5973 2.7532 16.4993 2.75289ZM16.4996 4.81554C13.2457 4.81607 10.4846 5.9567 8.21639 8.23745C5.94818 10.5182 4.81434 13.2743 4.81486 16.5058C4.81539 19.7602 5.95013 22.5217 8.21907 24.7902C10.488 27.0588 13.2495 28.1928 16.5034 28.1923C19.7344 28.1917 22.4897 27.0568 24.7694 24.7875C27.0491 22.5183 28.1886 19.7564 28.1881 16.502C28.1876 13.2705 27.0471 10.5148 24.7667 8.23477C22.4863 5.95476 19.7306 4.81502 16.4996 4.81554Z" fill="black" fill-opacity="0.55"/>
</svg>
