<svg width="27" height="23" viewBox="0 0 27 23" fill="none" xmlns="http://www.w3.org/2000/svg">
<path d="M5.1625 2.5C5.25 3.6125 5.46875 4.7 5.81875 5.7375L4.06875 7.2375C3.47083 5.7375 3.09167 4.15 2.96042 2.5H5.1625ZM19.5417 17.525C20.7812 17.825 22.05 18.0125 23.3333 18.0875V19.95C21.4083 19.8375 19.5562 19.5125 17.7917 19.0125L19.5417 17.525ZM6.5625 0H1.45833C0.65625 0 0 0.5625 0 1.25C0 12.9875 11.0979 22.5 24.7917 22.5C25.5938 22.5 26.25 21.9375 26.25 21.25V16.8875C26.25 16.2 25.5938 15.6375 24.7917 15.6375C22.9833 15.6375 21.2188 15.3875 19.5854 14.925C19.4396 14.875 19.2792 14.8625 19.1333 14.8625C18.7542 14.8625 18.3896 14.9875 18.0979 15.225L14.8896 17.975C10.7625 16.1625 7.37917 13.275 5.27917 9.7375L8.4875 6.9875C8.89583 6.6375 9.0125 6.15 8.85208 5.7125C8.3125 4.3125 8.02083 2.8125 8.02083 1.25C8.02083 0.5625 7.36458 0 6.5625 0Z" fill="#E8E8E8"/>
</svg>
