<?xml version="1.0" encoding="UTF-8" standalone="no"?>
<!-- Created with Inkscape (http://www.inkscape.org/) -->

<svg
   version="1.1"
   id="svg16"
   width="1024"
   height="1024"
   viewBox="0 0 1024 1024"
   sodipodi:docname="logocirene.svg"
   inkscape:export-filename="C:\Users\RAISSAFRANCISCOLIMA\Downloads\cirenelogo.png"
   inkscape:export-xdpi="96"
   inkscape:export-ydpi="96"
   inkscape:version="1.1 (c68e22c387, 2021-05-23)"
   xmlns:inkscape="http://www.inkscape.org/namespaces/inkscape"
   xmlns:sodipodi="http://sodipodi.sourceforge.net/DTD/sodipodi-0.dtd"
   xmlns="http://www.w3.org/2000/svg"
   xmlns:svg="http://www.w3.org/2000/svg">
  <defs
     id="defs20" />
  <sodipodi:namedview
     id="namedview18"
     pagecolor="#ffffff"
     bordercolor="#666666"
     borderopacity="1.0"
     inkscape:pageshadow="2"
     inkscape:pageopacity="0.0"
     inkscape:pagecheckerboard="0"
     showgrid="false"
     inkscape:lockguides="false"
     showguides="false"
     inkscape:zoom="3.1289063"
     inkscape:cx="424.74906"
     inkscape:cy="676.75405"
     inkscape:window-width="1920"
     inkscape:window-height="1009"
     inkscape:window-x="-8"
     inkscape:window-y="-8"
     inkscape:window-maximized="1"
     inkscape:current-layer="g22" />
  <g
     inkscape:groupmode="layer"
     inkscape:label="Image"
     id="g22">
    <path
       style="fill:#dd032f;stroke:#dd032f;stroke-width:7.6;stroke-linecap:butt;stroke-linejoin:miter;stroke-miterlimit:4;stroke-dasharray:none;stroke-opacity:1;fill-opacity:1"
       d="m 333.02372,641.44761 h 30.68165 l 38.99126,-240.97878 c 8.42788,-22.55319 23.96858,-25.88795 36.43446,-28.12484 l 147.65543,0.6392 c 17.00405,1.40982 40.83726,7.91054 41.70786,40.10986 l 34.67666,229.95256 32.59925,1.27841 -39.95006,-272.29963 c -7.21811,-18.08208 -9.22906,-37.33761 -45.38328,-48.89888 l -192.0799,-0.9588 c -31.77093,10.00775 -40.90495,29.21175 -45.70287,50.17728 z"
       id="path164"
       sodipodi:nodetypes="ccccccccccccc" />
    <path
       style="fill:#fffd82;stroke:#000000;stroke-width:3.7;stroke-linecap:butt;stroke-linejoin:miter;stroke-miterlimit:4;stroke-dasharray:none;stroke-opacity:1;fill-opacity:1"
       d="m 300.09546,483.03544 c 17.31352,5.14599 13.58989,20.22089 6.39201,25.56804 l -99.30214,17.89762 c 0,0 -21.58888,-9.89597 -6.16602,-23.01123 z"
       id="path166"
       sodipodi:nodetypes="ccccc" />
    <path
       style="fill:#fffd82;stroke:#000000;stroke-width:3.7;stroke-linecap:butt;stroke-linejoin:miter;stroke-miterlimit:4;stroke-dasharray:none;stroke-opacity:1;fill-opacity:1"
       d="m 329.82772,394.71603 c 4.43938,3.56276 12.14378,20.37074 -8.30962,24.92883 l -96.51935,-34.51685 c -8.03118,-13.32449 0.38848,-23.55104 10.86642,-22.37203 z"
       id="path168"
       sodipodi:nodetypes="ccccc" />
    <path
       style="fill:#fffd82;stroke:#010000;stroke-width:3.7;stroke-linecap:butt;stroke-linejoin:miter;stroke-miterlimit:4;stroke-dasharray:none;stroke-opacity:1;fill-opacity:1"
       d="m 342.95956,324.77056 c 5.67936,5.05433 24.00552,2.82035 19.81523,-17.89763 l -68.3945,-66.4769 c -24.21289,-12.36946 -26.77762,9.98744 -19.25358,17.9364 z"
       id="path170"
       sodipodi:nodetypes="ccccc" />
    <path
       style="fill:#fffd82;stroke:#000000;stroke-width:3.7;stroke-linecap:butt;stroke-linejoin:miter;stroke-miterlimit:4;stroke-dasharray:none;stroke-opacity:1;fill-opacity:1"
       d="m 399.50062,192.72851 39.63047,89.48814 c 2.55913,15.01944 -10.70293,20.20543 -19.81523,12.78402 l -43.46567,-88.20974 c -1.23262,-23.83128 18.56578,-18.43547 23.65043,-14.06242 z"
       id="path172"
       sodipodi:nodetypes="ccccc" />
    <path
       style="fill:#fffd82;stroke:#010000;stroke-width:3.7;stroke-linecap:butt;stroke-linejoin:miter;stroke-miterlimit:4;stroke-dasharray:none;stroke-opacity:1;fill-opacity:1"
       d="m 526.06242,185.6973 v 104.18976 c -7.23564,9.10431 -22.91341,10.70961 -24.92884,-1.9176 V 186.3365 c 2.58741,-12.7412 23.09164,-12.90765 24.92884,-0.6392 z"
       id="path174"
       sodipodi:nodetypes="ccccc" />
    <path
       style="fill:#fffd82;stroke:#000000;stroke-width:3.7;stroke-linecap:butt;stroke-linejoin:miter;stroke-miterlimit:4;stroke-dasharray:none;stroke-opacity:1;fill-opacity:1"
       d="m 583.59051,273.90704 c -0.92689,5.41013 2.14841,24.15934 21.73284,15.98002 l 42.18726,-91.40574 c 2.90364,-15.65777 -13.54212,-21.95431 -23.65043,-12.14482 z"
       id="path176"
       sodipodi:nodetypes="ccccc" />
    <path
       style="fill:#fffd82;stroke:#000000;stroke-width:3.7;stroke-linecap:butt;stroke-linejoin:miter;stroke-miterlimit:4;stroke-dasharray:none;stroke-opacity:1;fill-opacity:1"
       d="m 670.48421,305.26552 c -8.64722,5.06289 0.73197,26.61324 15.98003,17.89763 l 70.95131,-69.03371 c 3.7683,-16.29321 -8.76194,-22.23546 -18.53683,-18.53683 z"
       id="path178"
       sodipodi:nodetypes="ccccc" />
    <path
       style="fill:#fffd82;stroke:#000000;stroke-width:3.7;stroke-linecap:butt;stroke-linejoin:miter;stroke-miterlimit:4;stroke-dasharray:none;stroke-opacity:1;fill-opacity:1"
       d="m 786.06879,356.0283 c 19.04813,0.41595 18.87179,18.52772 10.37565,23.9861 l -92.68414,31.96005 c -7.70751,1.63846 -21.80101,-6.14493 -11.50562,-22.37203 z"
       id="path180"
       sodipodi:nodetypes="ccccc" />
    <path
       style="fill:#fffd82;stroke:#000000;stroke-width:3.7;stroke-linecap:butt;stroke-linejoin:miter;stroke-miterlimit:4;stroke-dasharray:none;stroke-opacity:1;fill-opacity:1"
       d="m 827.76529,496.98819 c 7.87235,5.05846 11.47352,21.96991 -7.03121,24.28963 l -95.88015,-18.53683 c -13.69884,-4.8333 -5.25832,-24.04454 3.19601,-23.65043 z"
       id="path182"
       sodipodi:nodetypes="ccccc" />
    <text
       xml:space="preserve"
       style="font-style:normal;font-weight:normal;font-size:40px;line-height:1.25;font-family:sans-serif;fill:#000000;fill-opacity:1;stroke:none"
       x="464.63889"
       y="589.38629"
       id="text2268"><tspan
         sodipodi:role="line"
         id="tspan2266"
         x="464.63889"
         y="589.38629" /></text>
    <path
       id="path5111"
       style="fill:#280b0b;stroke:#000000"
       sodipodi:type="arc"
       sodipodi:cx="236.84935"
       sodipodi:cy="652.40387"
       sodipodi:rx="1.4724225"
       sodipodi:ry="0.35382074"
       sodipodi:start="0"
       sodipodi:end="3.7328084"
       sodipodi:arc-type="slice"
       d="m 238.32177,652.40387 a 1.4724225,0.35382074 0 0 1 -1.00013,0.33513 1.4724225,0.35382074 0 0 1 -1.64174,-0.12014 1.4724225,0.35382074 0 0 1 -0.0531,-0.4122 l 1.2225,0.19721 z" />
    <circle
       id="path5113"
       style="fill:#280b0b;stroke:#000000"
       cx="236.84935"
       cy="652.40387"
       r="1.4724225" />
    <path
       style="fill:none;stroke:#ff0000;stroke-width:1px;stroke-linecap:butt;stroke-linejoin:miter;stroke-opacity:1"
       d="m 311.52385,647.69215 c -11.83355,-0.41622 -33.63251,7.22507 -34.87694,31.18588 l -0.2377,13.92544 c 0.203,11.7428 8.14418,27.24693 24.60239,27.45794 l 414.01656,2.29529 c 27.36779,-1.08947 34.0935,-15.42108 34.76609,-24.20551 l 0.49745,-17.66425 c -0.64834,-17.04866 -22.06142,-32.38629 -39.77454,-32.5428 z"
       id="path5160"
       sodipodi:nodetypes="ccccccccc" />
    <path
       style="fill:none;stroke:#ff0000;stroke-width:1px;stroke-linecap:butt;stroke-linejoin:miter;stroke-opacity:1"
       d="m 276.73209,720.1268 c -14.11547,1.59794 -26.8045,5.69534 -27.91525,33.10346 l 0.22256,19.64596 c -2.88153,27.93287 7.30784,22.03078 32.09063,22.21037 l 455.14954,3.29819 c 34.0941,-4.38131 42.31178,7.70428 42.09557,-28.21366 l -0.0598,-9.93511 c 0.1444,-24.58578 0.87068,-35.05307 -29.20738,-37.49038 z"
       id="path5162"
       sodipodi:nodetypes="ccccccccc" />
  </g>
</svg>
