<?xml version="1.0" encoding="UTF-8"?>
<!DOCTYPE svg PUBLIC "-//W3C//DTD SVG 1.1//EN" "http://www.w3.org/Graphics/SVG/1.1/DTD/svg11.dtd">
<svg xmlns="http://www.w3.org/2000/svg" version="1.1" width="1024px" height="1024px" style="shape-rendering:geometricPrecision; text-rendering:geometricPrecision; image-rendering:optimizeQuality; fill-rule:evenodd; clip-rule:evenodd" xmlns:xlink="http://www.w3.org/1999/xlink">
<g><path style="opacity:1" fill="#fefefe" d="M -0.5,-0.5 C 340.833,-0.5 682.167,-0.5 1023.5,-0.5C 1023.5,340.833 1023.5,682.167 1023.5,1023.5C 682.167,1023.5 340.833,1023.5 -0.5,1023.5C -0.5,682.167 -0.5,340.833 -0.5,-0.5 Z"/></g>
<g><path style="opacity:1" fill="#151511" d="M 508.5,174.5 C 516.578,172.96 522.744,175.626 527,182.5C 527.667,218.5 527.667,254.5 527,290.5C 519.106,299.822 510.439,300.822 501,293.5C 500.138,291.913 499.471,290.246 499,288.5C 498.333,253.833 498.333,219.167 499,184.5C 501.022,179.98 504.189,176.647 508.5,174.5 Z"/></g>
<g><path style="opacity:1" fill="#fefc81" d="M 509.5,178.5 C 514.765,177.571 519.265,178.904 523,182.5C 523.667,218.167 523.667,253.833 523,289.5C 518.377,294.021 512.877,295.521 506.5,294C 504.513,292.681 503.346,290.848 503,288.5C 502.333,253.833 502.333,219.167 503,184.5C 504.436,181.558 506.603,179.558 509.5,178.5 Z"/></g>
<g><path style="opacity:1" fill="#13120f" d="M 629.5,179.5 C 644.499,178.865 650.665,185.865 648,200.5C 634,230.5 620,260.5 606,290.5C 596.254,296.057 588.587,294.057 583,284.5C 581.637,280.239 581.304,275.905 582,271.5C 595.14,242.415 608.473,213.415 622,184.5C 624.426,182.548 626.926,180.881 629.5,179.5 Z"/></g>
<g><path style="opacity:1" fill="#fbf980" d="M 630.5,182.5 C 641.865,182.028 646.699,187.362 645,198.5C 631.167,228.167 617.333,257.833 603.5,287.5C 591.025,291.549 584.859,286.882 585,273.5C 598.07,244.791 611.237,216.124 624.5,187.5C 626.544,185.781 628.544,184.114 630.5,182.5 Z"/></g>
<g><path style="opacity:1" fill="#11110e" d="M 382.5,186.5 C 392.945,185.009 400.112,189.009 404,198.5C 416,225.833 428,253.167 440,280.5C 441.996,294.17 436.162,300.336 422.5,299C 420.667,297.833 418.833,296.667 417,295.5C 402.667,266.167 388.333,236.833 374,207.5C 371.891,198.397 374.725,191.397 382.5,186.5 Z"/></g>
<g><path style="opacity:1" fill="#fbf980" d="M 383.5,190.5 C 388.951,189.779 393.785,191.112 398,194.5C 411,223.833 424,253.167 437,282.5C 438.116,291.376 434.283,295.876 425.5,296C 423.413,295.208 421.579,294.041 420,292.5C 405.728,264.29 391.728,235.957 378,207.5C 376.074,200.401 377.907,194.734 383.5,190.5 Z"/></g>
<g><path style="opacity:1" fill="#131310" d="M 738.5,232.5 C 755.302,231.467 761.802,239.134 758,255.5C 734.5,278.333 711,301.167 687.5,324C 676.463,329.232 668.963,326.065 665,314.5C 664.202,311.289 664.702,308.289 666.5,305.5C 690.532,281.135 714.532,256.802 738.5,232.5 Z"/></g>
<g><path style="opacity:1" fill="#14130f" d="M 276.5,234.5 C 283.291,234.041 289.624,235.541 295.5,239C 318.333,261.167 341.167,283.333 364,305.5C 366.483,323.693 358.983,330.526 341.5,326C 318.028,303.528 294.861,280.695 272,257.5C 269.077,251.675 268.744,245.675 271,239.5C 272.73,237.598 274.563,235.931 276.5,234.5 Z"/></g>
<g><path style="opacity:1" fill="#fbf980" d="M 740.5,235.5 C 752.392,235.222 757.226,240.889 755,252.5C 732.544,273.99 710.377,295.823 688.5,318C 680.448,324.9 673.948,323.733 669,314.5C 668.333,312.5 668.333,310.5 669,308.5C 692.673,283.993 716.507,259.66 740.5,235.5 Z"/></g>
<g><path style="opacity:1" fill="#fbfa80" d="M 276.5,238.5 C 282.533,237.965 288.199,239.132 293.5,242C 315.667,263.5 337.833,285 360,306.5C 362.943,320.88 357.443,326.38 343.5,323C 320.972,300.138 298.139,277.638 275,255.5C 271.349,249.421 271.849,243.755 276.5,238.5 Z"/></g>
<g><path style="opacity:1" fill="#dd0830" d="M 699.5,646.5 C 690.329,647.535 680.995,647.535 671.5,646.5C 667.5,646.5 663.5,646.5 659.5,646.5C 647.332,565.156 635.166,483.823 623,402.5C 617.805,386.986 606.971,378.486 590.5,377C 538.167,376.333 485.833,376.333 433.5,377C 418.474,380.358 408.974,389.524 405,404.5C 392.229,484.52 379.396,564.52 366.5,644.5C 353.656,644.829 340.989,644.495 328.5,643.5C 341.005,555.131 353.838,466.798 367,378.5C 370.281,348.909 385.781,329.076 413.5,319C 479.5,318.333 545.5,318.333 611.5,319C 631.672,324.846 645.838,337.346 654,356.5C 655.389,360.944 657.056,365.277 659,369.5C 672.828,461.794 686.328,554.128 699.5,646.5 Z"/></g>
<g><path style="opacity:1" fill="#13130f" d="M 784.5,353.5 C 798.727,353.871 804.561,360.871 802,374.5C 801.208,376.587 800.041,378.421 798.5,380C 767.242,391.197 735.909,402.197 704.5,413C 697.655,414.33 692.155,412.164 688,406.5C 685.271,399.258 686.438,392.758 691.5,387C 722.713,376.099 753.713,364.932 784.5,353.5 Z"/></g>
<g><path style="opacity:1" fill="#fbf980" d="M 783.5,357.5 C 789.008,357.413 793.841,359.08 798,362.5C 800.63,368.561 799.464,373.727 794.5,378C 764.425,388.136 734.425,398.469 704.5,409C 694.697,410.527 689.863,406.361 690,396.5C 691.039,394.254 692.206,392.087 693.5,390C 723.865,379.826 753.865,368.992 783.5,357.5 Z"/></g>
<g><path style="opacity:1" fill="#13130f" d="M 228.5,360.5 C 231.187,360.336 233.854,360.503 236.5,361C 267.167,371.333 297.833,381.667 328.5,392C 335.962,397.103 338.128,403.936 335,412.5C 330.719,418.702 324.886,421.202 317.5,420C 285.907,408.692 254.407,397.192 223,385.5C 216.853,375.137 218.687,366.803 228.5,360.5 Z"/></g>
<g><path style="opacity:1" fill="#fbf980" d="M 228.5,364.5 C 231.518,364.335 234.518,364.502 237.5,365C 267.833,375.333 298.167,385.667 328.5,396C 332.681,400.595 333.514,405.761 331,411.5C 327.117,416.009 322.284,417.509 316.5,416C 286.909,405.136 257.243,394.47 227.5,384C 224.554,381.771 223.221,378.771 223.5,375C 223.43,370.641 225.097,367.141 228.5,364.5 Z"/></g>
<g><path style="opacity:1" fill="#12120f" d="M 724.5,476.5 C 759.19,482.432 793.856,488.599 828.5,495C 837.305,503.069 837.638,511.403 829.5,520C 826.656,521.424 823.656,522.257 820.5,522.5C 788.137,516.493 755.804,510.326 723.5,504C 717.956,501.76 715.29,497.594 715.5,491.5C 716.221,485.045 719.221,480.045 724.5,476.5 Z"/></g>
<g><path style="opacity:1" fill="#12110e" d="M 297.5,480.5 C 309.789,482.284 314.955,489.284 313,501.5C 311.6,504.902 309.433,507.736 306.5,510C 273.499,515.767 240.499,521.6 207.5,527.5C 201.681,525.521 197.181,521.854 194,516.5C 192.491,510.716 193.991,505.883 198.5,502C 231.59,494.679 264.59,487.512 297.5,480.5 Z"/></g>
<g><path style="opacity:1" fill="#faf87f" d="M 724.5,480.5 C 758.535,486.007 792.535,491.841 826.5,498C 832.239,503.494 832.905,509.494 828.5,516C 825.963,517.838 823.129,518.671 820,518.5C 788.75,513.131 757.583,507.297 726.5,501C 721.672,500.165 719.006,497.332 718.5,492.5C 719.448,487.936 721.448,483.936 724.5,480.5 Z"/></g>
<g><path style="opacity:1" fill="#faf87f" d="M 296.5,484.5 C 306.147,484.976 310.647,489.976 310,499.5C 309.117,502.102 307.617,504.269 305.5,506C 273.556,512.157 241.556,517.991 209.5,523.5C 203.846,522.695 199.679,519.695 197,514.5C 196.601,509.538 198.768,506.038 203.5,504C 234.656,497.537 265.656,491.037 296.5,484.5 Z"/></g>
<g><path style="opacity:1" fill="#f7c0cb" d="M 328.5,643.5 C 340.989,644.495 353.656,644.829 366.5,644.5C 353.661,645.825 340.661,645.825 327.5,644.5C 327.624,643.893 327.957,643.56 328.5,643.5 Z"/></g>
<g><path style="opacity:1" fill="#ff4c49" d="M 498.5,646.5 C 434.5,647.167 370.5,647.833 306.5,648.5C 301.278,649.019 296.278,650.352 291.5,652.5C 292.058,651.21 293.058,650.377 294.5,650C 297.5,649 300.5,648 303.5,647C 368.499,646.5 433.499,646.333 498.5,646.5 Z"/></g>
<g><path style="opacity:1" fill="#ff8f8e" d="M 498.5,646.5 C 552.167,646.5 605.833,646.5 659.5,646.5C 663.5,646.5 667.5,646.5 671.5,646.5C 659.833,647.167 648.167,647.833 636.5,648.5C 526.5,648.5 416.5,648.5 306.5,648.5C 370.5,647.833 434.5,647.167 498.5,646.5 Z"/></g>
<g><path style="opacity:1" fill="#ff6c6a" d="M 671.5,646.5 C 680.995,647.535 690.329,647.535 699.5,646.5C 712.111,645.214 723.444,648.214 733.5,655.5C 727.821,652.496 721.821,650.329 715.5,649C 689.169,648.5 662.835,648.333 636.5,648.5C 648.167,647.833 659.833,647.167 671.5,646.5 Z"/></g>
<g><path style="opacity:1" fill="#1b1414" d="M 234.5,650.5 C 239.833,651.5 239.833,652.5 234.5,653.5C 234.5,652.5 234.5,651.5 234.5,650.5 Z"/></g>
<g><path style="opacity:1" fill="#ff6f64" d="M 291.5,652.5 C 291.027,653.906 290.027,654.573 288.5,654.5C 288.973,653.094 289.973,652.427 291.5,652.5 Z"/></g>
<g><path style="opacity:1" fill="#ff7875" d="M 288.5,654.5 C 286.833,656.833 284.833,658.833 282.5,660.5C 283.5,657.5 285.5,655.5 288.5,654.5 Z"/></g>
<g><path style="opacity:1" fill="#ff716a" d="M 733.5,655.5 C 735.196,655.685 736.529,656.519 737.5,658C 735.588,658.279 734.254,657.446 733.5,655.5 Z"/></g>
<g><path style="opacity:1" fill="#ff6b66" d="M 282.5,660.5 C 282.573,662.027 281.906,663.027 280.5,663.5C 280.427,661.973 281.094,660.973 282.5,660.5 Z"/></g>
<g><path style="opacity:1" fill="#ff6864" d="M 745.5,667.5 C 743.915,666.998 743.415,665.998 744,664.5C 745.039,665.244 745.539,666.244 745.5,667.5 Z"/></g>
<g><path style="opacity:1" fill="#ff5751" d="M 280.5,663.5 C 280.34,665.153 279.674,666.486 278.5,667.5C 278.229,665.62 278.896,664.287 280.5,663.5 Z"/></g>
<g><path style="opacity:1" fill="#ff655e" d="M 745.5,667.5 C 747.539,668.911 748.539,670.911 748.5,673.5C 746.992,671.819 745.992,669.819 745.5,667.5 Z"/></g>
<g><path style="opacity:1" fill="#ff4e40" d="M 278.5,667.5 C 275.028,681.889 276.028,695.889 281.5,709.5C 278.643,706.454 276.81,702.787 276,698.5C 275.333,690.167 275.333,681.833 276,673.5C 276.24,671.148 277.073,669.148 278.5,667.5 Z"/></g>
<g><path style="opacity:1" fill="#ff7f7a" d="M 748.5,673.5 C 749.268,674.263 749.768,675.263 750,676.5C 751.115,686.321 750.448,695.988 748,705.5C 747.623,706.942 746.79,707.942 745.5,708.5C 746.32,706.188 747.153,703.854 748,701.5C 748.5,692.173 748.666,682.839 748.5,673.5 Z"/></g>
<g><path style="opacity:1" fill="#ff7777" d="M 745.5,708.5 C 745.573,710.027 744.906,711.027 743.5,711.5C 743.427,709.973 744.094,708.973 745.5,708.5 Z"/></g>
<g><path style="opacity:1" fill="#ff7c79" d="M 743.5,711.5 C 742.415,713.587 740.749,714.92 738.5,715.5C 739.585,713.413 741.251,712.08 743.5,711.5 Z"/></g>
<g><path style="opacity:1" fill="#ff7673" d="M 281.5,709.5 C 283.833,711.167 285.833,713.167 287.5,715.5C 284.5,714.5 282.5,712.5 281.5,709.5 Z"/></g>
<g><path style="opacity:1" fill="#ff615b" d="M 287.5,715.5 C 289.819,715.992 291.819,716.992 293.5,718.5C 294.167,719.167 294.833,719.833 295.5,720.5C 287.826,720.334 280.159,720.5 272.5,721C 267.076,721.919 262.076,723.585 257.5,726C 260.952,722.94 264.952,720.94 269.5,720C 277.167,719.667 284.833,719.333 292.5,719C 290.416,718.303 288.749,717.136 287.5,715.5 Z"/></g>
<g><path style="opacity:1" fill="#ff100e" d="M 293.5,718.5 C 337.137,719.484 380.803,719.817 424.5,719.5C 402.006,720.497 379.339,720.831 356.5,720.5C 336.167,720.5 315.833,720.5 295.5,720.5C 294.833,719.833 294.167,719.167 293.5,718.5 Z"/></g>
<g><path style="opacity:1" fill="#ff6a65" d="M 424.5,719.5 C 437.011,719.171 449.345,719.505 461.5,720.5C 452.651,720.174 443.984,720.507 435.5,721.5C 408.995,721.831 382.661,721.498 356.5,720.5C 379.339,720.831 402.006,720.497 424.5,719.5 Z"/></g>
<g><path style="opacity:1" fill="#ff3d34" d="M 435.5,721.5 C 443.984,720.507 452.651,720.174 461.5,720.5C 547.502,720.42 633.502,720.753 719.5,721.5C 721.099,721.232 722.432,721.566 723.5,722.5C 627.499,722.377 531.499,722.044 435.5,721.5 Z"/></g>
<g><path style="opacity:1" fill="#ff453f" d="M 738.5,715.5 C 735.454,718.357 731.787,720.19 727.5,721C 735.167,721.333 742.833,721.667 750.5,722C 741.506,722.5 732.506,722.666 723.5,722.5C 722.432,721.566 721.099,721.232 719.5,721.5C 725.978,720.291 732.311,718.291 738.5,715.5 Z"/></g>
<g><path style="opacity:1" fill="#ff5e56" d="M 751.5,723.5 C 756.944,722.343 762.278,723.177 767.5,726C 762.265,724.989 756.931,724.156 751.5,723.5 Z"/></g>
<g><path style="opacity:1" fill="#ff7f78" d="M 769.5,728.5 C 771.496,727.312 772.329,727.979 772,730.5C 771.292,729.619 770.458,728.953 769.5,728.5 Z"/></g>
<g><path style="opacity:1" fill="#ff887b" d="M 253.5,731.5 C 253.685,729.804 254.519,728.471 256,727.5C 256.279,729.412 255.446,730.746 253.5,731.5 Z"/></g>
<g><path style="opacity:1" fill="#ff5851" d="M 253.5,731.5 C 253.34,733.153 252.674,734.486 251.5,735.5C 251.229,733.62 251.896,732.287 253.5,731.5 Z"/></g>
<g><path style="opacity:1" fill="#ff5a52" d="M 777.5,740.5 C 777.737,741.791 777.404,742.791 776.5,743.5C 776.123,740.475 775.956,737.475 776,734.5C 777.128,736.345 777.628,738.345 777.5,740.5 Z"/></g>
<g><path style="opacity:1" fill="#ffa298" d="M 777.5,740.5 C 778.833,754.5 778.833,768.5 777.5,782.5C 777.5,781.833 777.167,781.5 776.5,781.5C 776.5,768.833 776.5,756.167 776.5,743.5C 777.404,742.791 777.737,741.791 777.5,740.5 Z"/></g>
<g><path style="opacity:1" fill="#ff7571" d="M 251.5,735.5 C 251.477,737.927 250.977,740.26 250,742.5C 249.732,755.179 249.232,767.845 248.5,780.5C 248.41,785.572 250.077,789.905 253.5,793.5C 250.548,792.641 248.715,790.641 248,787.5C 247.333,773.833 247.333,760.167 248,746.5C 248.416,742.471 249.583,738.804 251.5,735.5 Z"/></g>
<g><path style="opacity:1" fill="#ff6a64" d="M 776.5,781.5 C 777.167,781.5 777.5,781.833 777.5,782.5C 778.051,790.099 774.717,794.766 767.5,796.5C 766.209,796.737 765.209,796.404 764.5,795.5C 773.056,794.934 777.056,790.267 776.5,781.5 Z"/></g>
<g><path style="opacity:1" fill="#ff5d52" d="M 253.5,793.5 C 294.126,794.052 334.792,794.385 375.5,794.5C 373.393,795.468 371.059,795.802 368.5,795.5C 330.832,795.667 293.165,795.5 255.5,795C 254.584,794.722 253.918,794.222 253.5,793.5 Z"/></g>
<g><path style="opacity:1" fill="#ff7f7c" d="M 375.5,794.5 C 395.84,794.492 416.174,794.825 436.5,795.5C 436.5,795.833 436.5,796.167 436.5,796.5C 413.661,796.831 390.994,796.497 368.5,795.5C 371.059,795.802 373.393,795.468 375.5,794.5 Z"/></g>
<g><path style="opacity:1" fill="#ff4f46" d="M 436.5,796.5 C 436.5,796.167 436.5,795.833 436.5,795.5C 513.166,795.878 589.833,796.211 666.5,796.5C 659.687,797.491 652.687,797.825 645.5,797.5C 575.833,797.173 506.167,796.84 436.5,796.5 Z"/></g>
<g><path style="opacity:1" fill="#ff9795" d="M 666.5,796.5 C 690.5,796.5 714.5,796.5 738.5,796.5C 725.167,797.167 711.833,797.833 698.5,798.5C 680.659,798.83 662.992,798.497 645.5,797.5C 652.687,797.825 659.687,797.491 666.5,796.5 Z"/></g>
<g><path style="opacity:1" fill="#ffa8a7" d="M 746.5,796.5 C 752.31,795.51 758.31,795.177 764.5,795.5C 765.209,796.404 766.209,796.737 767.5,796.5C 766.432,797.434 765.099,797.768 763.5,797.5C 758.025,796.511 752.358,796.178 746.5,796.5 Z"/></g>
<g><path style="opacity:1" fill="#ff4642" d="M 738.5,796.5 C 741.167,796.5 743.833,796.5 746.5,796.5C 752.358,796.178 758.025,796.511 763.5,797.5C 741.839,798.135 720.172,798.468 698.5,798.5C 711.833,797.833 725.167,797.167 738.5,796.5 Z"/></g>
</svg>
